<?xml version="1.0" encoding="UTF-8"?>
<!-- Created with Grafika (https://www.grafika.cc/) -->
<svg version="1.0" xmlns="http://www.w3.org/2000/svg" xmlns:svg="http://www.w3.org/2000/svg" width="629" height="562" viewBox="-313.049561 -282.242920 628.214111 561.022186" preserveAspectRatio="xMinYMin meet">
	<path d="M-28.457313886157635,-3.5997875114520497 L-56.171542961016094,-30.901628189053344 L-75.66387822965778,-30.65843917670348 L-75.56140051268365,-69.63945807406559 L-8.703196328969833,-3.600915995333355 L141.5448055289955,-3.969548925749398 L141.34288814812325,-51.214462707046415 L18.785160128617736,-171.58182326467988 L-21.046339645430262,-171.68572745210642 L113.31332402962109,-39.79518156937478 L113.2597312821542,-30.934079333196383 L3.5113998401778237,-30.906810435064767 L-103.69326374344222,-135.93665715179108 L-103.71070081994127,-3.6186802275087233 C-53.445403380116765,-3.7407285108023025 -28.36094106885556,-3.734430938783411 -28.457313886157635,-3.5997875114520497 Z" transform="matrix(2.561468, 0.000000, 0.000000, 2.561468, -47.397934, 288.000000)" style="fill:#FF6214;" />
	<path d="M-28.457313886157635,-3.5997875114520497 L-56.171542961016094,-30.901628189053344 L-75.66387822965778,-30.65843917670348 L-75.56140051268365,-69.63945807406559 L-8.703196328969833,-3.600915995333355 L141.5448055289955,-3.969548925749398 L141.34288814812325,-51.214462707046415 L18.785160128617736,-171.58182326467988 L-21.046339645430262,-171.68572745210642 L113.31332402962109,-39.79518156937478 L113.2597312821542,-30.934079333196383 L3.5113998401778237,-30.906810435064767 L-103.69326374344222,-135.93665715179108 L-103.71070081994127,-3.6186802275087233 C-53.445403380116765,-3.7407285108023025 -28.36094106885556,-3.734430938783411 -28.457313886157635,-3.5997875114520497 Z" transform="matrix(-2.561468, 0.000000, 0.000000, -2.561468, 49.512917, -291.463654)" style="fill:#04C091;" />
	<g transform="matrix(0.175154, 0.000000, 0.000000, 0.175154, 124.919540, 243.980499)">
		<path d="M-495.7998046875,-29.09765625 L-472.2890625,33.5 L-464.8916015625,33.5 L-441.1123046875,-29.0 L-440.697265625,-29.0 Q-440.794921875,-26.900390625 -441.0146484375,-23.8486328125 Q-441.2099609375,-20.796875 -441.3076171875,-17.3544921875 Q-441.4052734375,-13.912109375 -441.4052734375,-10.396484375 L-441.4052734375,33.5 L-432.494140625,33.5 L-432.494140625,-37.9111328125 L-445.7021484375,-37.9111328125 L-468.08984375,20.609375 L-468.5048828125,20.609375 L-490.501953125,-37.9111328125 L-503.8076171875,-37.9111328125 L-503.8076171875,33.5 L-495.5068359375,33.5 L-495.5068359375,-9.810546875 Q-495.5068359375,-13.5947265625 -495.6044921875,-17.232421875 Q-495.7021484375,-20.89453125 -495.8486328125,-23.9951171875 Q-495.9951171875,-27.095703125 -496.1904296875,-29.09765625 L-495.7998046875,-29.09765625 ZM-379.2138671875,-16.6953125 Q-383.9013671875,-20.9921875 -393.69140625,-20.9921875 Q-398.8916015625,-20.9921875 -403.701171875,-19.6494140625 Q-408.5107421875,-18.306640625 -412.001953125,-16.40234375 L-409.2919921875,-9.810546875 Q-405.99609375,-11.3974609375 -402.2119140625,-12.642578125 Q-398.4033203125,-13.912109375 -394.2041015625,-13.912109375 Q-388.90625,-13.912109375 -386.0009765625,-11.2998046875 Q-383.095703125,-8.7119140625 -383.095703125,-1.998046875 L-383.095703125,1.2001953125 L-392.2021484375,1.4931640625 Q-405.2880859375,1.908203125 -411.611328125,6.25390625 Q-417.91015625,10.599609375 -417.91015625,18.607421875 Q-417.91015625,24.0029296875 -415.712890625,27.5673828125 Q-413.4912109375,31.107421875 -409.658203125,32.81640625 Q-405.80078125,34.5009765625 -400.9912109375,34.5009765625 Q-396.4990234375,34.5009765625 -393.349609375,33.59765625 Q-390.2001953125,32.6943359375 -387.7587890625,30.7412109375 Q-385.29296875,28.7880859375 -382.998046875,25.9072265625 L-382.607421875,25.9072265625 L-380.8984375,33.5 L-374.501953125,33.5 L-374.501953125,-2.9990234375 Q-374.501953125,-12.3984375 -379.2138671875,-16.6953125 ZM-404.9462890625,10.8193359375 Q-401.0888671875,8.01171875 -391.103515625,7.5966796875 L-383.193359375,7.3037109375 L-383.193359375,12.0888671875 Q-383.193359375,19.9013671875 -387.7099609375,23.6611328125 Q-392.2021484375,27.396484375 -398.9892578125,27.396484375 Q-403.310546875,27.396484375 -406.0693359375,25.296875 Q-408.8037109375,23.197265625 -408.8037109375,18.705078125 Q-408.8037109375,13.6025390625 -404.9462890625,10.8193359375 ZM-329.4638671875,-19.087890625 Q-333.7119140625,-21.08984375 -339.009765625,-21.08984375 Q-349.2880859375,-21.08984375 -355.1474609375,-13.5458984375 Q-361.0068359375,-6.001953125 -361.0068359375,6.791015625 Q-361.0068359375,19.9013671875 -355.1474609375,27.201171875 Q-349.2880859375,34.5009765625 -338.912109375,34.5009765625 Q-333.39453125,34.5009765625 -329.244140625,32.4990234375 Q-325.09375,30.4970703125 -322.310546875,26.3955078125 L-321.8955078125,26.3955078125 Q-321.9931640625,27.298828125 -322.0908203125,29.544921875 Q-322.1884765625,31.791015625 -322.1884765625,33.01171875 L-322.1884765625,35.111328125 Q-322.1884765625,42.09375 -326.1435546875,46.146484375 Q-330.0986328125,50.19921875 -337.0078125,50.19921875 Q-342.7939453125,50.19921875 -347.896484375,49.1005859375 Q-352.9990234375,48.001953125 -356.8076171875,46.0 L-356.8076171875,54.10546875 Q-352.9990234375,55.7900390625 -348.1650390625,56.64453125 Q-343.306640625,57.4990234375 -337.49609375,57.4990234375 Q-329.29296875,57.4990234375 -323.9951171875,54.88671875 Q-318.697265625,52.298828125 -316.109375,47.1474609375 Q-313.4970703125,41.99609375 -313.4970703125,34.4033203125 L-313.4970703125,-20.0888671875 L-320.50390625,-20.0888671875 L-321.7001953125,-13.0087890625 L-322.1884765625,-13.0087890625 Q-325.19140625,-17.1103515625 -329.4638671875,-19.087890625 ZM-345.455078125,-11.2998046875 Q-342.3056640625,-13.6923828125 -337.7890625,-13.6923828125 Q-332.3935546875,-13.6923828125 -328.90234375,-11.5927734375 Q-325.4111328125,-9.4931640625 -323.7509765625,-5.0009765625 Q-322.0908203125,-0.5087890625 -322.0908203125,6.791015625 L-322.0908203125,8.890625 Q-322.0908203125,13.7001953125 -322.994140625,17.2158203125 Q-323.8974609375,20.70703125 -325.8017578125,22.953125 Q-327.7060546875,25.19921875 -330.611328125,26.2490234375 Q-333.4921875,27.298828125 -337.59375,27.298828125 Q-344.6005859375,27.298828125 -348.2626953125,22.0498046875 Q-351.900390625,16.80078125 -351.900390625,6.888671875 Q-351.900390625,0.296875 -350.2646484375,-4.29296875 Q-348.6044921875,-8.9072265625 -345.455078125,-11.2998046875 ZM-287.9716796875,-38.8388671875 Q-289.509765625,-40.2060546875 -291.51171875,-40.2060546875 Q-293.708984375,-40.2060546875 -295.22265625,-38.8388671875 Q-296.7119140625,-37.49609375 -296.7119140625,-34.5908203125 Q-296.7119140625,-31.8076171875 -295.22265625,-30.3916015625 Q-293.708984375,-29.0 -291.51171875,-29.0 Q-289.509765625,-29.0 -287.9716796875,-30.3916015625 Q-286.4091796875,-31.8076171875 -286.4091796875,-34.5908203125 Q-286.4091796875,-37.49609375 -287.9716796875,-38.8388671875 ZM-287.1904296875,33.5 L-287.1904296875,-20.0888671875 L-296.00390625,-20.0888671875 L-296.00390625,33.5 L-287.1904296875,33.5 ZM-261.166015625,31.595703125 Q-255.599609375,34.5009765625 -248.4951171875,34.5009765625 Q-243.9052734375,34.5009765625 -240.658203125,33.744140625 Q-237.4111328125,33.01171875 -234.701171875,31.595703125 L-234.701171875,23.8076171875 Q-237.5087890625,25.1015625 -240.853515625,26.0048828125 Q-244.1982421875,26.908203125 -248.5927734375,26.908203125 Q-253.6953125,26.908203125 -257.11328125,24.61328125 Q-260.5068359375,22.2939453125 -262.2158203125,17.8017578125 Q-263.900390625,13.3095703125 -263.900390625,6.888671875 Q-263.900390625,0.19921875 -262.2158203125,-4.29296875 Q-260.5068359375,-8.8095703125 -257.015625,-11.1044921875 Q-253.5,-13.3994140625 -248.1044921875,-13.3994140625 Q-245.296875,-13.3994140625 -242.0986328125,-12.59375 Q-238.900390625,-11.7880859375 -236.5078125,-10.9091796875 L-233.7978515625,-18.208984375 Q-236.1904296875,-19.4052734375 -239.9990234375,-20.2353515625 Q-243.8076171875,-21.08984375 -247.9091796875,-21.08984375 Q-255.111328125,-21.08984375 -260.7509765625,-18.1845703125 Q-266.390625,-15.3037109375 -269.7109375,-9.1025390625 Q-273.0068359375,-2.9013671875 -273.0068359375,7.0107421875 Q-273.0068359375,16.5078125 -269.857421875,22.611328125 Q-266.7080078125,28.6904296875 -261.166015625,31.595703125 ZM-212.7998046875,-29.09765625 L-189.2890625,33.5 L-181.8916015625,33.5 L-158.1123046875,-29.0 L-157.697265625,-29.0 Q-157.794921875,-26.900390625 -158.0146484375,-23.8486328125 Q-158.2099609375,-20.796875 -158.3076171875,-17.3544921875 Q-158.4052734375,-13.912109375 -158.4052734375,-10.396484375 L-158.4052734375,33.5 L-149.494140625,33.5 L-149.494140625,-37.9111328125 L-162.7021484375,-37.9111328125 L-185.08984375,20.609375 L-185.5048828125,20.609375 L-207.501953125,-37.9111328125 L-220.8076171875,-37.9111328125 L-220.8076171875,33.5 L-212.5068359375,33.5 L-212.5068359375,-9.810546875 Q-212.5068359375,-13.5947265625 -212.6044921875,-17.232421875 Q-212.7021484375,-20.89453125 -212.8486328125,-23.9951171875 Q-212.9951171875,-27.095703125 -213.1904296875,-29.09765625 L-212.7998046875,-29.09765625 ZM-96.2138671875,-16.6953125 Q-100.9013671875,-20.9921875 -110.69140625,-20.9921875 Q-115.8916015625,-20.9921875 -120.701171875,-19.6494140625 Q-125.5107421875,-18.306640625 -129.001953125,-16.40234375 L-126.2919921875,-9.810546875 Q-122.99609375,-11.3974609375 -119.2119140625,-12.642578125 Q-115.4033203125,-13.912109375 -111.2041015625,-13.912109375 Q-105.90625,-13.912109375 -103.0009765625,-11.2998046875 Q-100.095703125,-8.7119140625 -100.095703125,-1.998046875 L-100.095703125,1.2001953125 L-109.2021484375,1.4931640625 Q-122.2880859375,1.908203125 -128.611328125,6.25390625 Q-134.91015625,10.599609375 -134.91015625,18.607421875 Q-134.91015625,24.0029296875 -132.712890625,27.5673828125 Q-130.4912109375,31.107421875 -126.658203125,32.81640625 Q-122.80078125,34.5009765625 -117.9912109375,34.5009765625 Q-113.4990234375,34.5009765625 -110.349609375,33.59765625 Q-107.2001953125,32.6943359375 -104.7587890625,30.7412109375 Q-102.29296875,28.7880859375 -99.998046875,25.9072265625 L-99.607421875,25.9072265625 L-97.8984375,33.5 L-91.501953125,33.5 L-91.501953125,-2.9990234375 Q-91.501953125,-12.3984375 -96.2138671875,-16.6953125 ZM-121.9462890625,10.8193359375 Q-118.0888671875,8.01171875 -108.103515625,7.5966796875 L-100.193359375,7.3037109375 L-100.193359375,12.0888671875 Q-100.193359375,19.9013671875 -104.7099609375,23.6611328125 Q-109.2021484375,27.396484375 -115.9892578125,27.396484375 Q-120.310546875,27.396484375 -123.0693359375,25.296875 Q-125.8037109375,23.197265625 -125.8037109375,18.705078125 Q-125.8037109375,13.6025390625 -121.9462890625,10.8193359375 ZM-66.1904296875,33.5 L-75.00390625,33.5 L-75.00390625,-42.5009765625 L-66.1904296875,-42.5009765625 L-66.1904296875,33.5 ZM-40.1904296875,33.5 L-49.00390625,33.5 L-49.00390625,-42.5009765625 L-40.1904296875,-42.5009765625 L-40.1904296875,33.5 ZM59.9052734375,-4.1953125 L35.1982421875,-4.1953125 L35.1982421875,3.7880859375 L50.896484375,3.7880859375 L50.896484375,25.00390625 Q48.2109375,25.7119140625 44.890625,26.2001953125 Q41.5947265625,26.6884765625 36.9072265625,26.6884765625 Q27.2880859375,26.6884765625 21.3798828125,23.05078125 Q15.49609375,19.388671875 12.7373046875,12.845703125 Q10.0029296875,6.302734375 10.0029296875,-2.193359375 Q10.0029296875,-11.1044921875 13.201171875,-17.5498046875 Q16.3994140625,-23.9951171875 22.5029296875,-27.486328125 Q28.6064453125,-31.001953125 37.1025390625,-31.001953125 Q42.205078125,-31.001953125 46.94140625,-29.8056640625 Q51.7021484375,-28.609375 55.5107421875,-26.900390625 L58.904296875,-34.6884765625 Q54.2900390625,-36.6904296875 48.943359375,-37.7890625 Q43.5966796875,-38.8876953125 37.5908203125,-38.8876953125 Q25.896484375,-38.8876953125 17.64453125,-34.3466796875 Q9.392578125,-29.8056640625 4.998046875,-21.6025390625 Q0.603515625,-13.3994140625 0.603515625,-2.193359375 Q0.603515625,9.1103515625 4.5341796875,17.3623046875 Q8.4892578125,25.58984375 16.08203125,30.0576171875 Q23.69921875,34.5009765625 34.8076171875,34.5009765625 Q42.302734375,34.5009765625 48.1865234375,33.59765625 Q54.0947265625,32.6943359375 59.9052734375,30.7900390625 L59.9052734375,-4.1953125 ZM110.7861328125,-16.6953125 Q106.0986328125,-20.9921875 96.30859375,-20.9921875 Q91.1083984375,-20.9921875 86.298828125,-19.6494140625 Q81.4892578125,-18.306640625 77.998046875,-16.40234375 L80.7080078125,-9.810546875 Q84.00390625,-11.3974609375 87.7880859375,-12.642578125 Q91.5966796875,-13.912109375 95.7958984375,-13.912109375 Q101.09375,-13.912109375 103.9990234375,-11.2998046875 Q106.904296875,-8.7119140625 106.904296875,-1.998046875 L106.904296875,1.2001953125 L97.7978515625,1.4931640625 Q84.7119140625,1.908203125 78.388671875,6.25390625 Q72.08984375,10.599609375 72.08984375,18.607421875 Q72.08984375,24.0029296875 74.287109375,27.5673828125 Q76.5087890625,31.107421875 80.341796875,32.81640625 Q84.19921875,34.5009765625 89.0087890625,34.5009765625 Q93.5009765625,34.5009765625 96.650390625,33.59765625 Q99.7998046875,32.6943359375 102.2412109375,30.7412109375 Q104.70703125,28.7880859375 107.001953125,25.9072265625 L107.392578125,25.9072265625 L109.1015625,33.5 L115.498046875,33.5 L115.498046875,-2.9990234375 Q115.498046875,-12.3984375 110.7861328125,-16.6953125 ZM85.0537109375,10.8193359375 Q88.9111328125,8.01171875 98.896484375,7.5966796875 L106.806640625,7.3037109375 L106.806640625,12.0888671875 Q106.806640625,19.9013671875 102.2900390625,23.6611328125 Q97.7978515625,27.396484375 91.0107421875,27.396484375 Q86.689453125,27.396484375 83.9306640625,25.296875 Q81.1962890625,23.197265625 81.1962890625,18.705078125 Q81.1962890625,13.6025390625 85.0537109375,10.8193359375 ZM204.3837890625,-16.4267578125 Q199.8916015625,-21.08984375 190.8095703125,-21.08984375 Q185.609375,-21.08984375 180.9462890625,-18.892578125 Q176.3076171875,-16.6953125 173.59765625,-12.10546875 L173.109375,-12.10546875 Q171.205078125,-16.6953125 167.0546875,-18.892578125 Q162.904296875,-21.08984375 156.703125,-21.08984375 Q153.5048828125,-21.08984375 150.501953125,-20.1865234375 Q147.4990234375,-19.3076171875 145.033203125,-17.4521484375 Q142.591796875,-15.5966796875 140.9072265625,-12.7890625 L140.39453125,-12.7890625 L139.1005859375,-20.0888671875 L131.99609375,-20.0888671875 L131.99609375,33.5 L140.8095703125,33.5 L140.8095703125,5.6923828125 Q140.8095703125,-0.6064453125 142.15234375,-4.9033203125 Q143.4951171875,-9.2001953125 146.595703125,-11.4462890625 Q149.6962890625,-13.6923828125 155.091796875,-13.6923828125 Q158.900390625,-13.6923828125 161.29296875,-12.30078125 Q163.7099609375,-10.9091796875 164.90625,-8.052734375 Q166.1025390625,-5.1962890625 166.1025390625,-0.9970703125 L166.1025390625,33.5 L174.7939453125,33.5 L174.7939453125,3.91015625 Q174.7939453125,-4.7080078125 178.138671875,-9.2001953125 Q181.5078125,-13.6923828125 189.2958984375,-13.6923828125 Q194.9111328125,-13.6923828125 197.5478515625,-10.494140625 Q200.208984375,-7.2958984375 200.208984375,-0.9970703125 L200.208984375,33.5 L208.900390625,33.5 L208.900390625,-1.412109375 Q208.900390625,-11.7880859375 204.3837890625,-16.4267578125 ZM258.5400390625,-18.0869140625 Q253.6083984375,-21.08984375 246.69921875,-21.08984375 Q239.5947265625,-21.08984375 234.248046875,-17.6962890625 Q228.9013671875,-14.302734375 225.947265625,-8.00390625 Q222.9931640625,-1.705078125 222.9931640625,7.1083984375 Q222.9931640625,15.9951171875 226.240234375,22.1474609375 Q229.51171875,28.2998046875 235.3466796875,31.400390625 Q241.2060546875,34.5009765625 248.798828125,34.5009765625 Q254.2919921875,34.5009765625 258.2958984375,33.646484375 Q262.2998046875,32.7919921875 266.4013671875,31.009765625 L266.4013671875,23.294921875 Q262.2021484375,25.1015625 258.2470703125,26.0537109375 Q254.2919921875,27.005859375 249.189453125,27.005859375 Q241.2060546875,27.005859375 236.73828125,22.26953125 Q232.294921875,17.5087890625 232.099609375,8.40234375 L268.7939453125,8.40234375 L268.7939453125,3.1044921875 Q268.7939453125,-4.1953125 266.1328125,-9.6396484375 Q263.49609375,-15.1083984375 258.5400390625,-18.0869140625 ZM236.640625,-9.859375 Q240.302734375,-13.912109375 246.6015625,-13.912109375 Q251.09375,-13.912109375 253.9501953125,-11.958984375 Q256.806640625,-10.005859375 258.1982421875,-6.587890625 Q259.58984375,-3.1943359375 259.58984375,1.3955078125 L232.294921875,1.3955078125 Q233.0029296875,-5.806640625 236.640625,-9.859375 ZM320.5947265625,25.248046875 Q323.6953125,20.8046875 323.6953125,14.408203125 Q323.6953125,8.79296875 321.44921875,5.1064453125 Q319.203125,1.3955078125 314.857421875,-1.2412109375 Q310.51171875,-3.90234375 304.1884765625,-6.197265625 Q298.40234375,-8.39453125 294.984375,-10.298828125 Q291.5908203125,-12.203125 290.0771484375,-14.595703125 Q288.587890625,-16.98828125 288.587890625,-20.6015625 Q288.587890625,-23.7021484375 290.0771484375,-26.0458984375 Q291.5908203125,-28.3896484375 294.59375,-29.68359375 Q297.5966796875,-31.001953125 302.0888671875,-31.001953125 Q306.80078125,-31.001953125 311.146484375,-29.9033203125 Q315.4921875,-28.8046875 319.203125,-27.193359375 L322.0107421875,-34.908203125 Q318.0068359375,-36.6904296875 313.099609375,-37.7890625 Q308.1923828125,-38.8876953125 302.30859375,-38.8876953125 Q295.5947265625,-38.8876953125 290.443359375,-36.6904296875 Q285.2919921875,-34.4931640625 282.38671875,-30.4404296875 Q279.505859375,-26.3876953125 279.505859375,-20.69921875 Q279.505859375,-16.5 280.6533203125,-13.3017578125 Q281.80078125,-10.103515625 284.095703125,-7.5888671875 Q286.390625,-5.0986328125 289.8330078125,-3.1455078125 Q293.2998046875,-1.1923828125 297.8896484375,0.4921875 Q304.408203125,2.8115234375 308.0458984375,4.8623046875 Q311.7080078125,6.888671875 313.197265625,9.3056640625 Q314.7109375,11.6982421875 314.7109375,15.189453125 Q314.7109375,18.705078125 312.904296875,21.3173828125 Q311.09765625,23.9052734375 307.484375,25.296875 Q303.8955078125,26.6884765625 298.59765625,26.6884765625 Q292.9091796875,26.6884765625 287.5380859375,25.39453125 Q282.19140625,24.1005859375 278.6025390625,22.4892578125 L278.6025390625,31.107421875 Q280.8974609375,32.2060546875 283.900390625,32.962890625 Q286.9033203125,33.6953125 290.541015625,34.0859375 Q294.203125,34.5009765625 298.20703125,34.5009765625 Q305.9951171875,34.5009765625 311.732421875,32.1083984375 Q317.494140625,29.69140625 320.5947265625,25.248046875 ZM345.638671875,-16.3046875 Q345.8095703125,-18.306640625 345.8095703125,-20.2109375 L345.8095703125,-42.5009765625 L336.99609375,-42.5009765625 L336.99609375,33.5 L345.8095703125,33.5 L345.8095703125,5.7900390625 Q345.8095703125,-0.5087890625 347.25,-4.8544921875 Q348.6904296875,-9.2001953125 352.083984375,-11.4462890625 Q355.501953125,-13.6923828125 361.5078125,-13.6923828125 Q367.708984375,-13.6923828125 370.58984375,-10.494140625 Q373.4951171875,-7.2958984375 373.4951171875,-0.8017578125 L373.4951171875,33.5 L382.2109375,33.5 L382.2109375,-1.412109375 Q382.2109375,-8.296875 379.9892578125,-12.59375 Q377.7919921875,-16.890625 373.4462890625,-18.94140625 Q369.1005859375,-20.9921875 362.6064453125,-20.9921875 Q359.1884765625,-20.9921875 355.990234375,-20.0400390625 Q352.7919921875,-19.087890625 350.1796875,-17.28125 Q347.591796875,-15.4990234375 345.9072265625,-12.69140625 L345.296875,-12.69140625 Q345.4921875,-14.302734375 345.638671875,-16.3046875 ZM443.8447265625,18.4609375 Q445.6025390625,13.3095703125 445.6025390625,6.595703125 Q445.6025390625,-2.291015625 442.453125,-8.443359375 Q439.3037109375,-14.595703125 433.7373046875,-17.8427734375 Q428.1953125,-21.08984375 420.8955078125,-21.08984375 Q413.205078125,-21.08984375 407.58984375,-17.8427734375 Q401.9990234375,-14.595703125 398.99609375,-8.443359375 Q395.9931640625,-2.291015625 395.9931640625,6.595703125 Q395.9931640625,13.3095703125 397.8486328125,18.4609375 Q399.7041015625,23.587890625 403.0,27.201171875 Q406.2958984375,30.7900390625 410.7880859375,32.6455078125 Q415.3046875,34.5009765625 420.6025390625,34.5009765625 Q426.291015625,34.5009765625 430.9296875,32.6455078125 Q435.5927734375,30.7900390625 438.83984375,27.201171875 Q442.111328125,23.587890625 443.8447265625,18.4609375 ZM406.7353515625,17.5576171875 Q405.099609375,12.89453125 405.099609375,6.595703125 Q405.099609375,-2.9013671875 408.7861328125,-8.296875 Q412.4970703125,-13.6923828125 420.7001953125,-13.6923828125 Q426.193359375,-13.6923828125 429.6357421875,-11.2509765625 Q433.1025390625,-8.8095703125 434.787109375,-4.29296875 Q436.49609375,0.19921875 436.49609375,6.595703125 Q436.49609375,12.89453125 434.8359375,17.5576171875 Q433.2001953125,22.1962890625 429.6845703125,24.7109375 Q426.193359375,27.201171875 420.7978515625,27.201171875 Q415.40234375,27.201171875 411.88671875,24.7109375 Q408.3955078125,22.1962890625 406.7353515625,17.5576171875 ZM501.451171875,-14.1806640625 Q495.396484375,-21.08984375 485.5087890625,-21.08984375 Q481.2119140625,-21.08984375 478.0380859375,-19.9912109375 Q474.888671875,-18.892578125 472.642578125,-16.98828125 Q470.396484375,-15.1083984375 468.8095703125,-12.7890625 L468.39453125,-12.7890625 L467.1982421875,-20.0888671875 L459.99609375,-20.0888671875 L459.99609375,57.4990234375 L468.8095703125,57.4990234375 L468.8095703125,35.501953125 Q468.8095703125,33.59765625 468.58984375,31.009765625 Q468.39453125,28.3974609375 468.19921875,26.6884765625 L468.8095703125,26.6884765625 Q470.396484375,28.7880859375 472.642578125,30.5458984375 Q474.888671875,32.3037109375 478.0869140625,33.40234375 Q481.3095703125,34.5009765625 485.4111328125,34.5009765625 Q492.1005859375,34.5009765625 497.0322265625,31.3515625 Q501.98828125,28.2021484375 504.7470703125,21.9521484375 Q507.505859375,15.7021484375 507.505859375,6.595703125 Q507.505859375,-7.2958984375 501.451171875,-14.1806640625 ZM475.2060546875,-11.6416015625 Q478.501953125,-13.6923828125 483.8974609375,-13.6923828125 Q491.294921875,-13.6923828125 494.8349609375,-8.19921875 Q498.3994140625,-2.7060546875 498.3994140625,6.498046875 Q498.3994140625,12.50390625 496.8369140625,17.1669921875 Q495.298828125,21.8056640625 492.1494140625,24.515625 Q489.0,27.201171875 484.0927734375,27.201171875 Q478.306640625,27.201171875 474.9375,24.80859375 Q471.5927734375,22.3916015625 470.201171875,17.8017578125 Q468.8095703125,13.2119140625 468.8095703125,6.595703125 L468.8095703125,4.9111328125 Q468.9072265625,-1.412109375 470.396484375,-5.4892578125 Q471.91015625,-9.5908203125 475.2060546875,-11.6416015625 Z" fill="#000000" fill-rule="evenodd" />
		<path d="M-75.00390625,-54.9453125 C-81.87717662869174,-54.94510479585192 -87.44901104585192,-49.373270378691736 -87.44921875,-42.5 L-87.44921875,-25.439453125 C-87.59042522597743,-25.574945328152396 -87.67295085304785,-25.746130221523284 -87.818359375,-25.87890625 C-94.12284918588809,-31.650255083648595 -102.34971299734394,-33.4375 -110.69140625,-33.4375 C-115.22932120966426,-33.4375 -119.72165295656491,-32.842314926466656 -124.046875,-31.634765625 C-127.96963870001906,-30.539577789969297 -131.60395504963878,-29.159206336560644 -134.9609375,-27.328125 C-135.7599716302337,-26.6055247194247 -136.4618016863706,-25.78223707277989 -137.048828125,-24.87890625 L-137.048828125,-37.91015625 C-137.04903582914807,-44.783426628691736 -142.62087024630824,-50.35526104585192 -149.494140625,-50.35546875 L-162.703125,-50.35546875 C-167.85966385787972,-50.35433109978607 -172.48145680772984,-47.173449910321814 -174.32421875,-42.357421875 L-185.197265625,-13.9375 L-195.853515625,-42.2890625 C-197.67754413241659,-47.14134367067426 -202.318160045221,-50.35491542258319 -207.501953125,-50.35546875 L-220.80859375,-50.35546875 C-227.6811008843734,-50.35418190882819 -233.2517454208455,-44.782663507361974 -233.251953125,-37.91015625 L-233.251953125,-31.3046875 C-234.57443876110588,-31.71395600159152 -235.91403241409324,-32.078364052561305 -237.31640625,-32.384765625 C-240.77382979362852,-33.157207051189495 -244.3255438946217,-33.53515625 -247.91015625,-33.53515625 C-254.37778300287246,-33.53515625 -260.7574056735971,-32.173703168966796 -266.4296875,-29.255859375 C-269.90741423460736,-27.476262578370942 -272.95460061709986,-24.981759383985978 -275.576171875,-22.09375 C-275.84450299950623,-23.051993381510066 -276.226790003409,-23.974596749101025 -276.71484375,-24.841796875 C-274.823133812439,-28.018530519075487 -273.96484375,-31.637456459634876 -273.96484375,-34.58984375 C-273.96484375,-38.73740188922709 -275.4497744941667,-44.429727093416574 -279.806640625,-48.216796875 C-282.836648967232,-50.86394281023126 -287.38692661879946,-52.65039062499999 -291.51171875,-52.650390625 C-295.5576325028031,-52.650390625 -300.3325745232329,-50.993334906434775 -303.564453125,-48.07421875 C-307.8655184131587,-44.1904253687663 -309.15625,-38.65036751287701 -309.15625,-34.58984375 C-309.15625,-33.335646099161224 -308.960720587368,-31.948807288776003 -308.66015625,-30.53125 C-310.11200846106357,-31.533808613506498 -311.7604338556225,-32.216214089957134 -313.49609375,-32.533203125 L-320.50390625,-32.533203125 C-322.234826773631,-32.287525581840995 -323.8945690165919,-31.679929031816172 -325.375,-30.75 C-329.69302031976883,-32.57145537298674 -334.33809349750453,-33.53515625 -339.009765625,-33.53515625 C-348.90658201608784,-33.53515625 -358.90797167934863,-28.992998181588735 -364.9765625,-21.1796875 C-365.38055170668787,-20.659551396389343 -365.64324867104136,-20.05827811277422 -366.015625,-19.51953125 C-367.2831808916344,-21.826975448702633 -368.7800621883751,-24.017687927566516 -370.818359375,-25.87890625 C-377.1228491858881,-31.650255083648595 -385.34971299734406,-33.4375 -393.69140625,-33.4375 C-398.22932120966425,-33.4375 -402.7216529565648,-32.842314926466656 -407.046875,-31.634765625 C-410.96963870001906,-30.539577789969297 -414.6039550496387,-29.159206336560644 -417.9609375,-27.328125 C-418.7599716302337,-26.6055247194247 -419.46180168637056,-25.78223707277989 -420.048828125,-24.87890625 L-420.048828125,-37.91015625 C-420.04903582914807,-44.783426628691736 -425.62087024630824,-50.35526104585192 -432.494140625,-50.35546875 L-445.703125,-50.35546875 C-450.85966385787975,-50.35433109978607 -455.48145680772984,-47.173449910321814 -457.32421875,-42.357421875 L-468.197265625,-13.9375 L-478.853515625,-42.2890625 C-480.67754413241664,-47.14134367067426 -485.318160045221,-50.35491542258319 -490.501953125,-50.35546875 L-503.80859375,-50.35546875 C-510.6811008843734,-50.35418190882819 -516.2517454208455,-44.782663507361974 -516.251953125,-37.91015625 L-516.251953125,33.5 C-516.2517454208455,40.372507257361974 -510.6811008843734,45.94402565882819 -503.80859375,45.9453125 L-495.5078125,45.9453125 C-490.2037259429564,45.554173500910075 -485.7343267396828,41.835821572645 -484.384765625,36.69140625 L-483.939453125,37.875 C-482.1164524614479,42.72948786667015 -477.47455987491276,45.944960905488976 -472.2890625,45.9453125 L-464.890625,45.9453125 C-459.72510636268817,45.94482369583534 -455.096819141963,42.7535978142296 -453.259765625,37.92578125 L-452.6640625,36.361328125 C-451.4211963536833,41.68030294535068 -446.8554038328118,45.56724702088078 -441.40625,45.9453125 L-432.494140625,45.9453125 C-428.0950000095266,45.582538966344444 -424.21712877424295,42.916780419915185 -422.302734375,38.939453125 C-420.07544215161397,41.103273087361345 -417.5153051269676,42.93825219259406 -414.7265625,44.181640625 C-414.69731606888246,44.194774943756606 -414.66801896604346,44.20779538380446 -414.638671875,44.220703125 C-410.3286806618911,46.102914477560226 -405.6514724144071,46.94531250000001 -400.9921875,46.9453125 C-397.16325733281565,46.9453125 -393.5248547150735,46.595080058780816 -389.91796875,45.560546875 C-388.64051665147696,45.194145885501136 -387.41619604423784,44.631886701524955 -386.189453125,44.087890625 C-384.59004219729604,45.10146616261123 -382.78044249334005,45.73672966409599 -380.8984375,45.9453125 L-374.501953125,45.9453125 C-372.24542615958956,45.67184759778433 -370.1068804528623,44.785627576967926 -368.318359375,43.3828125 C-368.72627609561874,44.2176240699058 -369.0394246518859,45.09549007490641 -369.251953125,46.0 L-369.251953125,54.10546875 C-369.25169869702626,59.03122488805272 -366.3463690980984,63.493364632215766 -361.841796875,65.486328125 C-358.2333685317351,67.08236373836716 -354.383392047722,68.18228786403903 -350.33203125,68.8984375 C-350.3281252703447,68.89909060170599 -350.3242190270572,68.89974117861586 -350.3203125,68.900390625 C-346.24780057152486,69.61666156719413 -341.97981346354766,69.94335937500001 -337.49609375,69.943359375 C-330.7159255372237,69.943359375 -324.32788454243956,68.91759670296402 -318.517578125,66.05859375 C-312.78895503247577,63.255704170628256 -307.8753388446478,58.466242322754816 -304.998046875,52.74609375 C-303.51525539639823,49.81496954308745 -302.52595521650755,46.71289048700241 -301.900390625,43.501953125 C-300.18070614112884,44.815122445750234 -298.1483780567952,45.65726940457238 -296.00390625,45.9453125 L-287.19140625,45.9453125 C-281.45981677872794,45.60875660775574 -276.7022531754424,41.395053046491874 -275.67578125,35.74609375 C-273.16409653424404,38.5021628553573 -270.24828443293114,40.8846496943004 -266.943359375,42.6171875 C-266.93685167697487,42.620448391419856 -266.93034145695094,42.62370350143182 -266.923828125,42.626953125 C-261.287656583762,45.56863914871632 -254.9287436551927,46.9453125 -248.49609375,46.9453125 C-244.76756942558703,46.9453125 -241.2905458101153,46.66045203177617 -237.876953125,45.869140625 C-234.77345449692774,45.16544071262218 -231.75839124397163,44.098979208561694 -228.9375,42.625 C-228.92575969716435,42.613954914872366 -228.9140411527571,42.60288768919586 -228.90234375,42.591796875 C-226.7000455686926,44.65365662052908 -223.8237883008778,45.84538740985439 -220.80859375,45.9453125 L-212.5078125,45.9453125 C-207.20372594295642,45.554173500910075 -202.73432673968284,41.835821572645 -201.384765625,36.69140625 L-200.939453125,37.875 C-199.11645246144792,42.72948786667015 -194.47455987491273,45.944960905488976 -189.2890625,45.9453125 L-181.890625,45.9453125 C-176.72510636268814,45.94482369583534 -172.09681914196298,42.7535978142296 -170.259765625,37.92578125 L-169.6640625,36.361328125 C-168.42119635368329,41.68030294535068 -163.8554038328118,45.56724702088078 -158.40625,45.9453125 L-149.494140625,45.9453125 C-145.0950000095266,45.582538966344444 -141.2171287742429,42.916780419915185 -139.302734375,38.939453125 C-137.07544215161394,41.103273087361345 -134.51530512696758,42.93825219259406 -131.7265625,44.181640625 C-131.6973160688825,44.194774943756606 -131.6680189660435,44.20779538380446 -131.638671875,44.220703125 C-127.32868066189107,46.102914477560226 -122.65147241440721,46.94531250000001 -117.9921875,46.9453125 C-114.16325733281565,46.9453125 -110.52485471507363,46.595080058780816 -106.91796875,45.560546875 C-105.64051665147693,45.194145885501136 -104.41619604423781,44.631886701524955 -103.189453125,44.087890625 C-101.59004219729606,45.10146616261123 -99.78044249334003,45.73672966409599 -97.8984375,45.9453125 L-91.501953125,45.9453125 C-88.42450157915358,45.86529408858623 -85.48590947388429,44.647549866537695 -83.25390625,42.52734375 C-81.02140738623429,44.647994840030705 -78.08203711086414,45.8657739276605 -75.00390625,45.9453125 L-66.19140625,45.9453125 C-62.974290374678006,45.91383840368994 -59.894353944807634,44.63776480601681 -57.59765625,42.384765625 C-55.300958555192366,44.63776480601681 -52.221022125321994,45.91383840368994 -49.00390625,45.9453125 L-40.19140625,45.9453125 C-33.318135871308264,45.94510479585192 -27.746301454148085,40.373270378691736 -27.74609375,33.5 L-27.74609375,-42.5 C-27.746301454148085,-49.373270378691736 -33.318135871308264,-54.94510479585192 -40.19140625,-54.9453125 L-49.00390625,-54.9453125 C-52.22074867308362,-54.91436115963713 -55.3006480119101,-53.63900267729025 -57.59765625,-51.38671875 C-59.894664488089894,-53.63900267729025 -62.97456382691637,-54.91436115963713 -66.19140625,-54.9453125 L-75.00390625,-54.9453125 ZM-237.876953125,45.869140625 C-237.8916318529591,45.872468939530314 -237.90523913327144,45.87950060336949 -237.919921875,45.8828125 L-237.833984375,45.86328125 C-237.84805826032573,45.86656162928645 -237.86287708162413,45.865877630638025 -237.876953125,45.869140625 ZM-304.998046875,52.74609375 C-305.0028298606991,52.75554856908018 -305.0049727577397,52.76593926993537 -305.009765625,52.775390625 L-304.990234375,52.734375 C-304.9923359007417,52.7385582257688 -304.9959431700974,52.741911517288514 -304.998046875,52.74609375 ZM-318.517578125,66.05859375 C-318.5230722772463,66.06128191813917 -318.5277074772413,66.06567486503492 -318.533203125,66.068359375 L-318.4921875,66.048828125 C-318.50038580270547,66.05287060605754 -318.5093775145455,66.05455858079875 -318.517578125,66.05859375 ZM-370.818359375,-25.87890625 C-370.8141019965552,-25.87500889797647 -370.80894312392746,-25.873041613600194 -370.8046875,-25.869140625 L-370.828125,-25.890625 C-370.8242571691661,-25.887097858928705 -370.8222242216966,-25.882435334734232 -370.818359375,-25.87890625 ZM-279.806640625,-48.216796875 C-279.77525550551775,-48.189377481361284 -279.7341797992237,-48.1682292659766 -279.703125,-48.140625 L-279.861328125,-48.27734375 C-279.8399424091397,-48.25896540043259 -279.82788909812376,-48.235266446489064 -279.806640625,-48.216796875 ZM-266.4296875,-29.255859375 C-266.42340202664707,-29.259075731286107 -266.4183972914207,-29.26436611574612 -266.412109375,-29.267578125 L-266.44921875,-29.248046875 C-266.4429704785343,-29.25126568151263 -266.43593749597625,-29.252644352804403 -266.4296875,-29.255859375 ZM-237.31640625,-32.384765625 C-237.3029413936929,-32.381757369668236 -237.2888526079124,-32.38192656667906 -237.275390625,-32.37890625 L-237.349609375,-32.39453125 C-237.33806573335733,-32.39201532810352 -237.3279432249564,-32.387286313262514 -237.31640625,-32.384765625 ZM-87.818359375,-25.87890625 C-87.81410199655521,-25.87500889797647 -87.80894312392748,-25.873041613600194 -87.8046875,-25.869140625 L-87.828125,-25.890625 C-87.82425716916613,-25.887097858928705 -87.82222422169662,-25.882435334734232 -87.818359375,-25.87890625 ZM336.99609375,-54.9453125 C332.07241314670483,-54.54117056121005 327.85389813522727,-51.263084131197104 326.24609375,-46.591796875 C322.95350993859705,-47.99132422520633 319.4857726532175,-49.11253107577221 315.818359375,-49.93359375 C311.51213378421875,-50.89767410614506 307.00567028895125,-51.33203124999999 302.30859375,-51.33203125 C296.47510651097156,-51.33203125 290.78941487103026,-50.36704159190864 285.560546875,-48.13671875 C280.363148231321,-45.91981885459191 275.61900346589596,-42.35833020242623 272.2734375,-37.69140625 C272.26364444518236,-37.677753804271845 272.2538783733256,-37.664082045493245 272.244140625,-37.650390625 C269.9358894916346,-34.40318987806222 268.500155493266,-30.63726287131538 267.734375,-26.7734375 C266.83888692671735,-27.458634082824588 265.947450656174,-28.15078244480256 264.982421875,-28.732421875 C259.4960685104602,-32.06472418006697 253.0971465241132,-33.53515625 246.69921875,-33.53515625 C239.98147274729587,-33.53515625 233.2500437835269,-31.801870326644977 227.580078125,-28.203125 C223.67534308863793,-25.72477719153274 220.39092459688695,-22.376890265578332 217.771484375,-18.56640625 C216.61802714429635,-20.88631314803995 215.2362936329281,-23.106970496953647 213.3203125,-25.080078125 C207.41938391444472,-31.18903052690353 198.9826017488239,-33.53515624999999 190.80859375,-33.53515625 C185.58905819100394,-33.53515625 180.3648617782729,-32.375550461620726 175.642578125,-30.150390625 C175.63476167348287,-30.146492724890976 175.6269491869079,-30.142586296148266 175.619140625,-30.138671875 C175.04180518972734,-29.865197195134005 174.5132014396453,-29.497062573243348 173.955078125,-29.18359375 C173.58720401153437,-29.40531428853629 173.2554188279203,-29.690260804336305 172.876953125,-29.890625 C167.84498108018857,-32.55461020019429 162.3070558813301,-33.53515625 156.703125,-33.53515625 C153.41402690314504,-33.53515625 150.1171233240456,-33.05811191902099 146.9609375,-32.11328125 C145.85637495312073,-31.788018672286327 144.80418994192868,-31.299765781428995 143.740234375,-30.845703125 C142.32218360446535,-31.712260438136823 140.74494408316482,-32.286044050728805 139.1015625,-32.533203125 L131.99609375,-32.533203125 C126.85895435287809,-32.132469802874596 122.49997147816664,-28.607540992118505 121.033203125,-23.66796875 C120.40646567368348,-24.4002479716669 119.91229165545234,-25.21173117165209 119.181640625,-25.87890625 C112.87715081411191,-31.650255083648595 104.65028700265606,-33.4375 96.30859375,-33.4375 C91.77067879033574,-33.4375 87.27834704343513,-32.842314926466656 82.953125,-31.634765625 C79.03036129998094,-30.539577789969297 75.39604495036116,-29.159206336560644 72.0390625,-27.328125 C67.48984166046509,-24.52961738999989 65.2334317435622,-19.140482327738628 66.431640625,-13.935546875 C64.8146232321292,-15.123405218249442 62.93438586054345,-15.902705112300954 60.951171875,-16.20703125 C63.53481672388297,-17.378579851920147 65.6406926391501,-19.39762934254045 66.919921875,-21.9296875 L70.3125,-29.716796875 C71.63236033642623,-32.74577344693077 71.6936199045183,-36.17526459083484 70.48277906755894,-39.249446159790146 C69.2719374887787,-42.32362791420067 66.88838169887661,-44.79016898024414 63.857421875,-46.10546875 C59.93373787322633,-47.80780784071662 55.78013309066455,-49.08820039232919 51.447265625,-49.978515625 C46.98295565548961,-50.89583959133775 42.352557600998296,-51.33203125000001 37.58984375,-51.33203125 C28.182856600236462,-51.33203125 19.321237378622502,-49.47445958557332 11.64453125,-45.25 C4.187724203603847,-41.14654996855123 -1.961289196163432,-34.96275495882828 -5.970703125,-27.478515625 C-10.014252845937936,-19.93055614591585 -11.841796875,-11.290787291682616 -11.841796875,-2.193359375 C-11.841796875,6.7848925456629985 -10.270311822984896,15.221866716342277 -6.701171875,22.71484375 C-6.694684295593754,22.72787587685653 -6.688174075569828,22.740896687814825 -6.681640625,22.75390625 C-3.078780906918164,30.248744058602338 2.6459632999831024,36.59037239597077 9.771484375,40.783203125 C9.785141578869302,40.791041778795396 9.7988133376479,40.79885389445993 9.8125,40.806640625 C17.164861561533034,45.09551820256093 25.743735504150393,46.9453125 34.80859375,46.9453125 C40.302385315476734,46.9453125 45.362579353346874,46.620125633580784 50.06640625,45.8984375 C54.69417796030403,45.19088562693699 59.27474907919216,44.09215484484456 63.78125,42.615234375 C65.4620032901117,41.884339266075784 66.96058457645128,40.79124839887691 68.169921875,39.4140625 C70.28684230975463,41.3711093892593 72.68551765601298,43.02779101303126 75.2734375,44.181640625 C75.30268393111751,44.194774943756606 75.33198103395651,44.20779538380446 75.361328125,44.220703125 C79.67131933810893,46.102914477560226 84.34852758559278,46.94531250000001 89.0078125,46.9453125 C92.83674266718435,46.9453125 96.47514528492637,46.595080058780816 100.08203125,45.560546875 C101.35948334852307,45.194145885501136 102.58380395576219,44.631886701524955 103.810546875,44.087890625 C105.40995780270394,45.10146616261123 107.21955750665997,45.73672966409599 109.1015625,45.9453125 L115.498046875,45.9453125 C118.57549842084642,45.86529408858623 121.51409052611571,44.647549866537695 123.74609375,42.52734375 C125.9785926137657,44.647994840030705 128.91796288913585,45.8657739276605 131.99609375,45.9453125 L140.80859375,45.9453125 C147.68186412869176,45.94510479585192 153.25369854585193,40.373270378691736 153.25390625,33.5 L153.25390625,5.69140625 C153.25390625,3.540012877671223 153.43711896557033,1.9651358427951575 153.658203125,0.671875 L153.658203125,33.5 C153.6584108291545,40.372507257361974 159.2290553656266,45.94402565882819 166.1015625,45.9453125 L174.79296875,45.9453125 C181.66623912869176,45.94510479585192 187.23807354585193,40.373270378691736 187.23828125,33.5 L187.23828125,3.91015625 C187.23828125,1.5194772454817689 187.51085435477384,0.16507040415001561 187.763671875,-0.701171875 L187.763671875,33.5 C187.76387957914807,40.373270378691736 193.33571399630824,45.94510479585192 200.208984375,45.9453125 L208.900390625,45.9453125 C214.8087071829798,45.64278748336913 219.68752066692744,41.22286810355793 220.5703125,35.373046875 C223.15573943773515,38.17544852380859 226.1434634754208,40.602874681499735 229.5078125,42.390625 C229.51366929035385,42.3938849652828 229.51952856255747,42.397140075294764 229.525390625,42.400390625 C235.3957790968518,45.50680452468825 242.04304082651743,46.94531250000001 248.798828125,46.9453125 C253.10620500070078,46.9453125 257.0872439774589,46.62852024490208 260.892578125,45.81640625 C264.4406931120037,45.059186588139454 267.93619435577125,43.912130298533924 271.361328125,42.423828125 C271.7134685927709,42.1574706717998 272.0511862565121,41.87256249453116 272.373046875,41.5703125 C272.64636163936,41.83721326275387 272.93182024772,42.09138854287446 273.228515625,42.33203125 C275.66137345209836,43.49669723105774 278.2021940497162,44.359600863139875 280.859375,45.029296875 C280.8899441368432,45.03722568665491 280.920543320778,45.04503854414032 280.951171875,45.052734375 C283.5715929844615,45.69186147486867 286.3077648694113,46.14344712491275 289.1796875,46.453125 C292.1127224799338,46.78389587286815 295.1217819777793,46.9453125 298.20703125,46.9453125 C304.67344128599734,46.9453125 310.85038841195643,45.95871767820539 316.521484375,43.59375 C316.5299513409957,43.590504025583286 316.5384151463014,43.58724891557132 316.546875,43.583984375 C320.06471403615484,42.10828071152826 323.3271605837625,40.00325398898552 326.18359375,37.439453125 C327.75079060038155,42.19008365600216 332.01002527257504,45.54069197867454 336.99609375,45.9453125 L345.80859375,45.9453125 C352.68186412869176,45.94510479585192 358.25369854585193,40.373270378691736 358.25390625,33.5 L358.25390625,5.7890625 C358.25390625,2.538451288405623 358.66716620782313,0.2532488242794948 359.0625,-0.939453125 C359.10182998311495,-1.0581096842281101 359.07399619101164,-0.9998714622461693 359.091796875,-1.060546875 C358.82664835023286,-0.8912829654388178 359.6848560352534,-1.0943111084554693 361.015625,-1.208984375 C361.0254391774158,-1.006411748135731 361.05078125,-1.0590485387466384 361.05078125,-0.80078125 L361.05078125,33.5 C361.05098895414807,40.373270378691736 366.62282337130824,45.94510479585192 373.49609375,45.9453125 L382.2109375,45.9453125 C388.023055680738,45.62313424411609 392.83547767976074,41.315318835364124 393.796875,35.57421875 C393.8006586983407,35.578370864396646 393.8028548315522,35.58374027366466 393.806640625,35.587890625 C393.8157378352152,35.59832238144692 393.82485258834123,35.60873903021355 393.833984375,35.619140625 C397.21376352422084,39.29934458748489 401.4182577247046,42.23869782379099 406.037109375,44.146484375 C406.04426764606677,44.14974618510661 406.0514291848214,44.15300129511857 406.05859375,44.15625 C410.65161253210914,46.043111769947544 415.61685378723627,46.945312499999986 420.6015625,46.9453125 C425.7462887867852,46.9453125 430.82821718855297,46.087172712205636 435.548828125,44.19921875 L435.55078125,44.19921875 C440.07810693770784,42.3944074024051 444.1951227299583,39.55427861821764 447.55078125,36.001953125 L447.55078125,57.5 C447.5520680911718,64.37250713437336 453.123586492638,69.9431516708455 459.99609375,69.943359375 L468.80859375,69.943359375 C475.681101007362,69.9431516708455 481.2526194088282,64.37250713437336 481.25390625,57.5 L481.25390625,46.646484375 C482.63550234794184,46.791885584159 484.01608488901064,46.94531249999999 485.41015625,46.9453125 C491.81896945437904,46.9453125 498.28380403266,45.31483746161125 503.720703125,41.845703125 C509.2805753056616,38.30801369146328 513.4940556546557,32.950206326620886 516.130859375,26.9765625 C518.8716974262034,20.76723027780472 519.9511718750001,13.92334427718503 519.951171875,6.595703125 C519.951171875,-4.469772731886293 517.5751843096332,-14.68484491878111 510.802734375,-22.390625 C504.5531145836569,-29.516883551587124 494.99449639458163,-33.53515624999999 485.5078125,-33.53515625 C481.58262308799857,-33.53515625 477.7231548409296,-33.05223088243715 473.966796875,-31.751953125 C473.95767832777693,-31.748708462286075 473.9485639455614,-31.74545335227411 473.939453125,-31.7421875 C473.23067395544246,-31.494938952479917 472.5637134915219,-31.115284452101484 471.869140625,-30.81640625 C470.44392280153147,-31.697164290847194 468.8555470652128,-32.281096754868905 467.19921875,-32.533203125 L459.99609375,-32.533203125 C453.9921895633489,-32.252040688171206 449.0470394892213,-27.720287360100304 448.244140625,-21.763671875 C445.86043523575944,-24.437635825957646 443.1115237710234,-26.77757709575032 440.017578125,-28.583984375 C434.26873423100574,-31.949805221778394 427.60269746081116,-33.53515624999999 420.89453125,-33.53515625 C414.016137765955,-33.53515625 407.2341359604674,-32.012378756487706 401.359375,-28.615234375 C401.3528613738284,-28.611334141498183 401.34635041198356,-28.607427712755474 401.33984375,-28.603515625 C397.14062687857876,-26.164669145091604 393.55030581597396,-22.744059956604517 390.74609375,-18.775390625 C388.09792362848515,-23.655669767966618 383.7741665731627,-27.828044285698553 378.7578125,-30.1953125 C373.69698345415463,-32.58356890365737 368.2448373761092,-33.4375 362.60546875,-33.4375 C361.1502915983675,-33.4375 359.6993611614882,-33.30271377565484 358.25390625,-33.126953125 L358.25390625,-42.5 C358.25369854585193,-49.373270378691736 352.68186412869176,-54.94510479585192 345.80859375,-54.9453125 L336.99609375,-54.9453125 ZM440.017578125,-28.583984375 C440.0206060208908,-28.582211608979716 440.02431636346637,-28.58185188010562 440.02734375,-28.580078125 L440.0078125,-28.591796875 C440.01141214094656,-28.58969708444785 440.0139793318174,-28.58608553867426 440.017578125,-28.583984375 ZM289.1796875,46.453125 C289.1663662893877,46.45162271022438 289.1519899445504,46.45268125621571 289.138671875,46.451171875 L289.212890625,46.458984375 C289.20128548507046,46.45773818547736 289.19128812393546,46.454375889049636 289.1796875,46.453125 ZM119.181640625,-25.87890625 C119.18589800344479,-25.87500889797647 119.19105687607252,-25.873041613600194 119.1953125,-25.869140625 L119.171875,-25.890625 C119.17574283083387,-25.887097858928705 119.17777577830338,-25.882435334734232 119.181640625,-25.87890625 ZM146.9609375,-32.11328125 C146.97633187041933,-32.1178144587522 146.99045893073378,-32.12635192789769 147.005859375,-32.130859375 L146.91796875,-32.103515625 C146.93204768880491,-32.107750752933185 146.94685288293647,-32.10906490188081 146.9609375,-32.11328125 ZM213.3203125,-25.080078125 C213.32789857947927,-25.072224615542282 213.3381254401057,-25.068412841384855 213.345703125,-25.060546875 L213.30078125,-25.107421875 C213.30887724531675,-25.099107068999015 213.3122314427259,-25.08840012539771 213.3203125,-25.080078125 ZM264.982421875,-28.732421875 C264.9919381447741,-28.726641881332633 265.0022079833342,-28.722588084405412 265.01171875,-28.716796875 L264.951171875,-28.75390625 C264.9620125678051,-28.74739115383142 264.97158946894064,-28.73895075228423 264.982421875,-28.732421875 ZM-75.00390625,-42.5 L-66.19140625,-42.5 L-66.19140625,33.5 L-75.00390625,33.5 L-75.00390625,-42.5 ZM-49.00390625,-42.5 L-40.19140625,-42.5 L-40.19140625,33.5 L-49.00390625,33.5 L-49.00390625,-42.5 ZM336.99609375,-42.5 L345.80859375,-42.5 L345.80859375,-20.2109375 C345.80859375,-18.94140625 345.7526041666667,-17.639322916666668 345.638671875,-16.3046875 C345.541015625,-14.970052083333334 345.4270833333333,-13.765625 345.296875,-12.69140625 L345.90625,-12.69140625 C347.029296875,-14.563151041666666 348.4544270833333,-16.093098958333332 350.1796875,-17.28125 C351.9212239583333,-18.485677083333332 353.8580729166667,-19.404296875 355.990234375,-20.0390625 C358.1223958333333,-20.673828125 360.3268229166667,-20.9921875 362.60546875,-20.9921875 C366.9348958333333,-20.9921875 370.5481770833333,-20.30859375 373.4453125,-18.94140625 C376.3424479166667,-17.57421875 378.5234375,-15.458333333333334 379.98828125,-12.59375 C381.4694010416667,-9.729166666666666 382.2109375,-6.001953125 382.2109375,-1.412109375 L382.2109375,33.5 L373.49609375,33.5 L373.49609375,-0.80078125 C373.49609375,-5.130208333333333 372.5266927083333,-8.361979166666666 370.58984375,-10.494140625 C368.6692708333333,-12.626302083333334 365.6419270833333,-13.69140625 361.5078125,-13.69140625 C357.50390625,-13.69140625 354.3626302083333,-12.942708333333334 352.083984375,-11.4453125 C349.8216145833333,-9.947916666666666 348.2102864583333,-7.752604166666666 347.25,-4.85546875 C346.2897135416667,-1.9583333333333335 345.80859375,1.58984375 345.80859375,5.7890625 L345.80859375,33.5 L336.99609375,33.5 L336.99609375,-42.5 ZM-291.51171875,-41.4453125 C-290.3494019614326,-41.4453125 -288.00027334348783,-40.655493235142 -286.80078125,-39.552734375 L-286.6484375,-39.41015625 C-284.6906850959428,-37.54868675106034 -284.267578125,-34.95399816970379 -284.267578125,-34.58984375 C-284.267578125,-34.46259419745389 -284.45820975006654,-33.179234465970744 -285.25,-31.728515625 C-285.7414570149705,-31.97134370926186 -286.24842074108057,-32.18143628371679 -286.767578125,-32.357421875 C-287.0260872926483,-31.57648285349803 -287.40724738364537,-30.903026785133907 -287.97265625,-30.390625 C-288.998046875,-29.462890625 -290.1770833333333,-29.0 -291.51171875,-29.0 C-292.9765625,-29.0 -294.2135416666667,-29.462890625 -295.22265625,-30.390625 C-295.76594127609053,-30.90719109038117 -296.1290026064773,-31.589420365786058 -296.375,-32.37890625 C-296.89069023734424,-32.20442563930353 -297.3943762279056,-31.996295922891363 -297.8828125,-31.755859375 C-298.6106097661829,-33.14644777561765 -298.853515625,-34.40298410398521 -298.853515625,-34.58984375 C-298.853515625,-35.063159964935124 -298.29260955789596,-37.8329671194068 -296.328125,-39.61328125 L-296.3203125,-39.619140625 C-295.3538458928094,-40.49356279341054 -293.06055221712677,-41.4453125 -291.51171875,-41.4453125 ZM289.669921875,-41.111328125 C289.6585428475079,-41.106424966812334 289.6480967594263,-41.09672130206263 289.63671875,-41.091796875 C289.62187451530554,-41.08531323723945 289.60663851610695,-41.08464084243721 289.591796875,-41.078125 L289.669921875,-41.111328125 ZM37.58984375,-38.88671875 C41.59375,-38.88671875 45.37890625,-38.521484375 48.943359375,-37.7890625 C52.5078125,-37.056640625 55.828125,-36.022135416666664 58.904296875,-34.6875 L55.51171875,-26.900390625 C52.97265625,-28.039713541666668 50.115234375,-29.007161458333332 46.94140625,-29.8046875 C43.783854166666664,-30.602213541666668 40.503255208333336,-31.001953125 37.1015625,-31.001953125 C31.4375,-31.001953125 26.572916666666668,-29.830078125 22.50390625,-27.486328125 C18.434895833333332,-25.158854166666668 15.333333333333334,-21.84765625 13.201171875,-17.55078125 C11.069010416666666,-13.25390625 10.00390625,-8.134114583333332 10.00390625,-2.193359375 C10.00390625,3.470703125 10.915364583333334,8.483723958333332 12.73828125,12.845703125 C14.577473958333334,17.207682291666668 17.456380208333332,20.609375 21.37890625,23.05078125 C25.317708333333332,25.475911458333332 30.493489583333332,26.6875 36.90625,26.6875 C40.03125,26.6875 42.693359375,26.524739583333332 44.890625,26.19921875 C47.104166666666664,25.873697916666668 49.106119791666664,25.475911458333332 50.896484375,25.00390625 L50.896484375,3.7890625 L35.19921875,3.7890625 L35.19921875,-4.1953125 L59.90625,-4.1953125 L59.90625,30.7890625 C56.032552083333336,32.05859375 52.126302083333336,32.995442708333336 48.1875,33.59765625 C44.264973958333336,34.199869791666664 39.805338541666664,34.5 34.80859375,34.5 C27.402994791666668,34.5 21.16015625,33.020833333333336 16.08203125,30.05859375 C11.020182291666668,27.080078125 7.171875,22.848307291666668 4.53515625,17.36328125 C1.9147135416666665,11.861979166666668 0.603515625,5.342447916666667 0.603515625,-2.193359375 C0.603515625,-9.6640625 2.068359375,-16.1328125 4.998046875,-21.6015625 C7.927734375,-27.0703125 12.143229166666668,-31.3203125 17.64453125,-34.34765625 C23.145833333333332,-37.375 29.793619791666668,-38.88671875 37.58984375,-38.88671875 ZM302.30859375,-38.88671875 C306.2311197916667,-38.88671875 309.828125,-38.521484375 313.099609375,-37.7890625 C316.37109375,-37.056640625 319.3424479166667,-36.096354166666664 322.01171875,-34.908203125 L319.203125,-27.193359375 C316.7291666666667,-28.267578125 314.0436197916667,-29.169921875 311.146484375,-29.90234375 C308.2493489583333,-30.634765625 305.2311197916667,-31.001953125 302.08984375,-31.001953125 C299.0950520833333,-31.001953125 296.595703125,-30.5625 294.59375,-29.68359375 C292.591796875,-28.820963541666668 291.0872395833333,-27.609375 290.078125,-26.046875 C289.0852864583333,-24.484375 288.587890625,-22.668619791666668 288.587890625,-20.6015625 C288.587890625,-18.192708333333332 289.0852864583333,-16.190755208333332 290.078125,-14.595703125 C291.0872395833333,-13.000651041666666 292.7220052083333,-11.568359375 294.984375,-10.298828125 C297.2630208333333,-9.029296875 300.330078125,-7.662109375 304.1875,-6.197265625 C308.4029947916667,-4.667317708333333 311.9602864583333,-3.016276041666667 314.857421875,-1.2421875 C317.7545572916667,0.515625 319.9518229166667,2.6315104166666665 321.44921875,5.10546875 C322.9466145833333,7.563151041666666 323.6953125,10.664713541666666 323.6953125,14.408203125 C323.6953125,18.672526041666668 322.6608072916667,22.285807291666668 320.59375,25.248046875 C318.5266927083333,28.210286458333332 315.5735677083333,30.498046875 311.732421875,32.109375 C307.9075520833333,33.704427083333336 303.3990885416667,34.5 298.20703125,34.5 C295.5377604166667,34.5 292.982421875,34.362630208333336 290.541015625,34.0859375 C288.1158854166667,33.825520833333336 285.90234375,33.451171875 283.900390625,32.962890625 C281.8984375,32.458333333333336 280.1315104166667,31.83984375 278.6015625,31.107421875 L278.6015625,22.48828125 C280.994140625,23.5625 283.974609375,24.531901041666668 287.5390625,25.39453125 C291.1197916666667,26.257161458333332 294.8053385416667,26.6875 298.59765625,26.6875 C302.1295572916667,26.6875 305.091796875,26.224609375 307.484375,25.296875 C309.8932291666667,24.369140625 311.6998697916667,23.041666666666668 312.904296875,21.31640625 C314.1087239583333,19.574869791666668 314.7109375,17.533203125 314.7109375,15.189453125 C314.7109375,12.861979166666666 314.2063802083333,10.899739583333334 313.197265625,9.3046875 C312.2044270833333,7.693359375 310.48828125,6.214192708333333 308.046875,4.86328125 C305.6217447916667,3.49609375 302.236328125,2.038411458333333 297.890625,0.4921875 C294.8307291666667,-0.630859375 292.1432291666667,-1.8424479166666667 289.83203125,-3.14453125 C287.537109375,-4.446614583333333 285.6256510416667,-5.9296875 284.095703125,-7.58984375 C282.5657552083333,-9.266276041666666 281.4173177083333,-11.168619791666666 280.65234375,-13.30078125 C279.8873697916667,-15.432942708333334 279.505859375,-17.899739583333332 279.505859375,-20.69921875 C279.505859375,-24.491536458333332 280.4661458333333,-27.739583333333332 282.38671875,-30.44140625 C284.3235677083333,-33.143229166666664 287.0091145833333,-35.2265625 290.443359375,-36.69140625 C293.8776041666667,-38.15625 297.8326822916667,-38.88671875 302.30859375,-38.88671875 ZM-503.80859375,-37.91015625 L-490.501953125,-37.91015625 L-468.50390625,20.609375 L-468.08984375,20.609375 L-445.703125,-37.91015625 L-432.494140625,-37.91015625 L-432.494140625,33.5 L-441.40625,33.5 L-441.40625,-10.396484375 C-441.40625,-12.740234375 -441.3736979166667,-15.060546875 -441.30859375,-17.35546875 C-441.2434895833333,-19.650390625 -441.1458333333333,-21.813151041666668 -441.015625,-23.84765625 C-440.869140625,-25.882161458333332 -440.7623697916667,-27.600260416666668 -440.697265625,-29.0 L-441.11328125,-29.0 L-464.890625,33.5 L-472.2890625,33.5 L-495.80078125,-29.09765625 L-496.19140625,-29.09765625 C-496.0611979166667,-27.763020833333332 -495.9453125,-26.063151041666668 -495.84765625,-23.99609375 C-495.75,-21.929036458333332 -495.6705729166667,-19.673828125 -495.60546875,-17.232421875 C-495.5403645833333,-14.807291666666666 -495.5078125,-12.333333333333334 -495.5078125,-9.810546875 L-495.5078125,33.5 L-503.80859375,33.5 L-503.80859375,-37.91015625 ZM-220.80859375,-37.91015625 L-207.501953125,-37.91015625 L-185.50390625,20.609375 L-185.08984375,20.609375 L-162.703125,-37.91015625 L-149.494140625,-37.91015625 L-149.494140625,33.5 L-158.40625,33.5 L-158.40625,-10.396484375 C-158.40625,-12.740234375 -158.37369791666666,-15.060546875 -158.30859375,-17.35546875 C-158.24348958333334,-19.650390625 -158.14583333333334,-21.813151041666668 -158.015625,-23.84765625 C-157.869140625,-25.882161458333332 -157.76236979166666,-27.600260416666668 -157.697265625,-29.0 L-158.11328125,-29.0 L-181.890625,33.5 L-189.2890625,33.5 L-212.80078125,-29.09765625 L-213.19140625,-29.09765625 C-213.06119791666666,-27.763020833333332 -212.9453125,-26.063151041666668 -212.84765625,-23.99609375 C-212.75,-21.929036458333332 -212.67057291666666,-19.673828125 -212.60546875,-17.232421875 C-212.54036458333334,-14.807291666666666 -212.5078125,-12.333333333333334 -212.5078125,-9.810546875 L-212.5078125,33.5 L-220.80859375,33.5 L-220.80859375,-37.91015625 ZM-324.236328125,-30.380859375 L-324.158203125,-30.345703125 C-324.1694433764882,-30.351000255011655 -324.18211350838135,-30.35213862109418 -324.193359375,-30.357421875 C-324.2081774026125,-30.36431132322413 -324.22149788209487,-30.373995091141044 -324.236328125,-30.380859375 ZM464.65625,-26.53125 C464.64426033370523,-26.521215170601096 464.6350233327602,-26.508098509196078 464.623046875,-26.498046875 C464.6146931651828,-26.49098221684122 464.60404909770153,-26.487544683377386 464.595703125,-26.48046875 L464.65625,-26.53125 ZM-331.623046875,-25.453125 L-330.8984375,-25.453125 C-330.9128495838436,-25.42778480616556 -330.9271726613529,-25.402394132069276 -330.94140625,-25.376953125 C-331.1673253562429,-25.422713031213096 -331.3964845790468,-25.412532507544483 -331.623046875,-25.453125 ZM-406.1015625,-24.462890625 C-406.1077842834612,-24.46084345753856 -406.1129199542139,-24.45712664008497 -406.119140625,-24.455078125 C-406.12799743374615,-24.452133526089227 -406.13762977544883,-24.452170283183722 -406.146484375,-24.44921875 L-406.1015625,-24.462890625 ZM-123.1015625,-24.462890625 C-123.10778428346124,-24.46084345753856 -123.11291995421391,-24.45712664008497 -123.119140625,-24.455078125 C-123.12799743374615,-24.452133526089227 -123.13762977544883,-24.452170283183722 -123.146484375,-24.44921875 L-123.1015625,-24.462890625 ZM83.8984375,-24.462890625 C83.89221571653876,-24.46084345753856 83.88708004578609,-24.45712664008497 83.880859375,-24.455078125 C83.87200256625385,-24.452133526089227 83.86237022455117,-24.452170283183722 83.853515625,-24.44921875 L83.8984375,-24.462890625 ZM436.80078125,-21.42578125 L436.833984375,-21.40234375 C436.828420760085,-21.40628957618084 436.8219723536709,-21.408169180749585 436.81640625,-21.412109375 C436.8107311934826,-21.4161134028915 436.8064600694111,-21.42178208140061 436.80078125,-21.42578125 ZM-339.009765625,-21.08984375 C-335.4778645833333,-21.08984375 -332.296875,-20.422526041666668 -329.46484375,-19.087890625 C-326.6165364583333,-17.76953125 -324.189453125,-15.7421875 -322.1875,-13.0078125 L-321.69921875,-13.0078125 L-320.50390625,-20.08984375 L-313.49609375,-20.08984375 L-313.49609375,34.40234375 C-313.49609375,39.464192708333336 -314.3678385416667,43.714192708333336 -316.109375,47.1484375 C-317.8346354166667,50.582682291666664 -320.4641927083333,53.161458333333336 -323.99609375,54.88671875 C-327.5279947916667,56.628255208333336 -332.02734375,57.5 -337.49609375,57.5 C-341.3697916666667,57.5 -344.9251302083333,57.214192708333336 -348.1640625,56.64453125 C-351.38671875,56.074869791666664 -354.26953125,55.228515625 -356.80859375,54.10546875 L-356.80859375,46.0 C-354.26953125,47.334635416666664 -351.2981770833333,48.369140625 -347.896484375,49.1015625 C-344.4947916666667,49.833984375 -340.865234375,50.19921875 -337.0078125,50.19921875 C-332.4016927083333,50.19921875 -328.78125,48.848307291666664 -326.14453125,46.146484375 C-323.5078125,43.444661458333336 -322.1875,39.766276041666664 -322.1875,35.111328125 L-322.1875,33.01171875 C-322.1875,32.197916666666664 -322.1549479166667,31.042317708333332 -322.08984375,29.544921875 C-322.0247395833333,28.047526041666668 -321.9596354166667,26.996744791666668 -321.89453125,26.39453125 L-322.310546875,26.39453125 C-324.166015625,29.12890625 -326.4772135416667,31.165364583333332 -329.244140625,32.5 C-332.0110677083333,33.834635416666664 -335.2337239583333,34.5 -338.912109375,34.5 C-345.8294270833333,34.5 -351.2421875,32.067708333333336 -355.1484375,27.201171875 C-359.0546875,22.334635416666668 -361.0078125,15.53125 -361.0078125,6.791015625 C-361.0078125,-1.737630208333334 -359.0546875,-8.517578125 -355.1484375,-13.546875 C-351.2421875,-18.576171875 -345.8619791666667,-21.08984375 -339.009765625,-21.08984375 ZM-247.91015625,-21.08984375 C-245.17578125,-21.08984375 -242.5390625,-20.804036458333332 -240.0,-20.234375 C-237.4609375,-19.680989583333332 -235.39192708333334,-19.006510416666668 -233.796875,-18.208984375 L-236.5078125,-10.91015625 C-238.10286458333334,-11.49609375 -239.96549479166666,-12.056640625 -242.09765625,-12.59375 C-244.22981770833334,-13.130859375 -246.23372395833334,-13.3984375 -248.10546875,-13.3984375 C-251.70247395833334,-13.3984375 -254.671875,-12.635416666666666 -257.015625,-11.10546875 C-259.3430989583333,-9.575520833333334 -261.0755208333333,-7.304036458333334 -262.21484375,-4.29296875 C-263.337890625,-1.2981770833333335 -263.900390625,2.429036458333333 -263.900390625,6.888671875 C-263.900390625,11.169270833333332 -263.337890625,14.805989583333334 -262.21484375,17.80078125 C-261.0755208333333,20.795572916666668 -259.3756510416667,23.067057291666668 -257.11328125,24.61328125 C-254.83463541666666,26.143229166666668 -251.99544270833334,26.908203125 -248.59375,26.908203125 C-245.6640625,26.908203125 -243.08333333333334,26.606119791666668 -240.853515625,26.00390625 C-238.62369791666666,25.401692708333332 -236.57291666666666,24.671223958333332 -234.701171875,23.80859375 L-234.701171875,31.595703125 C-236.5078125,32.539713541666664 -238.49348958333334,33.255859375 -240.658203125,33.744140625 C-242.82291666666666,34.248697916666664 -245.43619791666666,34.5 -248.49609375,34.5 C-253.232421875,34.5 -257.455078125,33.532552083333336 -261.166015625,31.595703125 C-264.8606770833333,29.658854166666668 -267.7578125,26.6640625 -269.857421875,22.611328125 C-271.95703125,18.542317708333332 -273.0078125,13.343098958333332 -273.0078125,7.01171875 C-273.0078125,0.40364583333333304 -271.908203125,-4.967447916666667 -269.7109375,-9.1015625 C-267.4973958333333,-13.235677083333332 -264.509765625,-16.263020833333332 -260.75,-18.18359375 C-256.990234375,-20.120442708333332 -252.71158854166666,-21.08984375 -247.91015625,-21.08984375 ZM156.703125,-21.08984375 C160.83723958333334,-21.08984375 164.28776041666666,-20.357421875 167.0546875,-18.892578125 C169.82161458333334,-17.427734375 171.83984375,-15.165364583333334 173.109375,-12.10546875 L173.59765625,-12.10546875 C175.404296875,-15.165364583333334 177.85286458333334,-17.427734375 180.9453125,-18.892578125 C184.05403645833334,-20.357421875 187.341796875,-21.08984375 190.80859375,-21.08984375 C196.86328125,-21.08984375 201.38802083333334,-19.534505208333332 204.3828125,-16.42578125 C207.39388020833334,-13.333333333333334 208.900390625,-8.329427083333332 208.900390625,-1.412109375 L208.900390625,33.5 L200.208984375,33.5 L200.208984375,-0.99609375 C200.208984375,-5.1953125 199.32096354166666,-8.361979166666666 197.546875,-10.494140625 C195.7890625,-12.626302083333334 193.04036458333334,-13.69140625 189.296875,-13.69140625 C184.10481770833334,-13.69140625 180.384765625,-12.194010416666666 178.138671875,-9.19921875 C175.90885416666666,-6.204427083333334 174.79296875,-1.835286458333333 174.79296875,3.91015625 L174.79296875,33.5 L166.1015625,33.5 L166.1015625,-0.99609375 C166.1015625,-3.7955729166666665 165.70377604166666,-6.1484375 164.90625,-8.052734375 C164.10872395833334,-9.95703125 162.904296875,-11.373046875 161.29296875,-12.30078125 C159.69791666666666,-13.228515625 157.630859375,-13.69140625 155.091796875,-13.69140625 C151.49479166666666,-13.69140625 148.66276041666666,-12.942708333333334 146.595703125,-11.4453125 C144.52864583333334,-9.947916666666666 143.04752604166666,-7.766927083333334 142.15234375,-4.90234375 C141.25716145833334,-2.0377604166666665 140.80859375,1.4921875 140.80859375,5.69140625 L140.80859375,33.5 L131.99609375,33.5 L131.99609375,-20.08984375 L139.1015625,-20.08984375 L140.39453125,-12.7890625 L140.90625,-12.7890625 C142.029296875,-14.660807291666666 143.40559895833334,-16.216145833333332 145.033203125,-17.453125 C146.67708333333334,-18.690104166666668 148.5,-19.6015625 150.501953125,-20.1875 C152.50390625,-20.789713541666668 154.57096354166666,-21.08984375 156.703125,-21.08984375 ZM246.69921875,-21.08984375 C251.30533854166666,-21.08984375 255.25130208333334,-20.087890625 258.5390625,-18.0859375 C261.8430989583333,-16.100260416666668 264.375,-13.286458333333334 266.1328125,-9.640625 C267.9069010416667,-6.011067708333334 268.79296875,-1.761067708333333 268.79296875,3.10546875 L268.79296875,8.40234375 L232.099609375,8.40234375 C232.22981770833334,14.473307291666668 233.77604166666666,19.095703125 236.73828125,22.26953125 C239.716796875,25.427083333333332 243.8671875,27.005859375 249.189453125,27.005859375 C252.59114583333334,27.005859375 255.609375,26.689453125 258.24609375,26.0546875 C260.8828125,25.419921875 263.6028645833333,24.499348958333332 266.40234375,23.294921875 L266.40234375,31.009765625 C263.66796875,32.197916666666664 260.9661458333333,33.076822916666664 258.296875,33.646484375 C255.62760416666666,34.216145833333336 252.4609375,34.5 248.798828125,34.5 C243.73697916666666,34.5 239.25390625,33.467447916666664 235.34765625,31.400390625 C231.45768229166666,29.333333333333332 228.42122395833334,26.25 226.240234375,22.1484375 C224.07552083333334,18.046875 222.9921875,13.033854166666668 222.9921875,7.109375 C222.9921875,1.233723958333333 223.97786458333334,-3.8046875 225.947265625,-8.00390625 C227.91666666666666,-12.203125 230.68359375,-15.432942708333334 234.248046875,-17.6953125 C237.8125,-19.957682291666668 241.962890625,-21.08984375 246.69921875,-21.08984375 ZM420.89453125,-21.08984375 C425.7610677083333,-21.08984375 430.0436197916667,-20.008463541666668 433.73828125,-17.84375 C437.44921875,-15.679036458333334 440.353515625,-12.544921875 442.453125,-8.443359375 C444.552734375,-4.341796875 445.6015625,0.671223958333333 445.6015625,6.595703125 C445.6015625,11.071614583333332 445.015625,15.026692708333334 443.84375,18.4609375 C442.6881510416667,21.87890625 441.0208333333333,24.792317708333332 438.83984375,27.201171875 C436.6751302083333,29.59375 434.0384114583333,31.407552083333332 430.9296875,32.64453125 C427.8372395833333,33.881510416666664 424.3938802083333,34.5 420.6015625,34.5 C417.0696614583333,34.5 413.8001302083333,33.881510416666664 410.7890625,32.64453125 C407.7942708333333,31.407552083333332 405.197265625,29.59375 403.0,27.201171875 C400.802734375,24.792317708333332 399.0846354166667,21.87890625 397.84765625,18.4609375 C396.6106770833333,15.026692708333334 395.9921875,11.071614583333332 395.9921875,6.595703125 C395.9921875,0.671223958333333 396.994140625,-4.341796875 398.99609375,-8.443359375 C400.998046875,-12.544921875 403.8626302083333,-15.679036458333334 407.58984375,-17.84375 C411.3333333333333,-20.008463541666668 415.767578125,-21.08984375 420.89453125,-21.08984375 ZM485.5078125,-21.08984375 C492.099609375,-21.08984375 497.4147135416667,-18.785807291666668 501.451171875,-14.1796875 C505.4876302083333,-9.58984375 507.505859375,-2.665364583333334 507.505859375,6.595703125 C507.505859375,12.666666666666668 506.5852864583333,17.786458333333332 504.74609375,21.953125 C502.9069010416667,26.119791666666668 500.3352864583333,29.251953125 497.03125,31.3515625 C493.7434895833333,33.451171875 489.8697916666667,34.5 485.41015625,34.5 C482.67578125,34.5 480.234375,34.134765625 478.0859375,33.40234375 C475.9537760416667,32.669921875 474.1399739583333,31.71875 472.642578125,30.546875 C471.1451822916667,29.375 469.8665364583333,28.087239583333332 468.80859375,26.6875 L468.19921875,26.6875 C468.3294270833333,27.826822916666668 468.4596354166667,29.268229166666668 468.58984375,31.009765625 C468.736328125,32.735026041666664 468.80859375,34.232421875 468.80859375,35.501953125 L468.80859375,57.5 L459.99609375,57.5 L459.99609375,-20.08984375 L467.19921875,-20.08984375 L468.39453125,-12.7890625 L468.80859375,-12.7890625 C469.8665364583333,-14.335286458333334 471.1451822916667,-15.735026041666666 472.642578125,-16.98828125 C474.1399739583333,-18.2578125 475.939453125,-19.259765625 478.0390625,-19.9921875 C480.1549479166667,-20.724609375 482.6432291666667,-21.08984375 485.5078125,-21.08984375 ZM-393.69140625,-20.9921875 C-387.1647135416667,-20.9921875 -382.33984375,-19.559895833333332 -379.21484375,-16.6953125 C-376.0735677083333,-13.830729166666666 -374.501953125,-9.266276041666668 -374.501953125,-3.0 L-374.501953125,33.5 L-380.8984375,33.5 L-382.607421875,25.90625 L-382.998046875,25.90625 C-384.5279947916667,27.826822916666668 -386.1139322916667,29.440104166666668 -387.7578125,30.7421875 C-389.3854166666667,32.044270833333336 -391.25,32.995442708333336 -393.349609375,33.59765625 C-395.44921875,34.199869791666664 -397.9973958333333,34.5 -400.9921875,34.5 C-404.1985677083333,34.5 -407.0865885416667,33.939453125 -409.658203125,32.81640625 C-412.2135416666667,31.677083333333332 -414.2317708333333,29.926432291666668 -415.712890625,27.56640625 C-417.177734375,25.190104166666668 -417.91015625,22.204427083333332 -417.91015625,18.607421875 C-417.91015625,13.268880208333332 -415.810546875,9.151041666666666 -411.611328125,6.25390625 C-407.3958333333333,3.3567708333333335 -400.9270833333333,1.7688802083333333 -392.203125,1.4921875 L-383.095703125,1.19921875 L-383.095703125,-1.998046875 C-383.095703125,-6.473958333333333 -384.0631510416667,-9.575520833333334 -386.0,-11.30078125 C-387.9368489583333,-13.042317708333334 -390.6712239583333,-13.912109375 -394.203125,-13.912109375 C-397.0026041666667,-13.912109375 -399.671875,-13.488932291666666 -402.2109375,-12.642578125 C-404.7337239583333,-11.8125 -407.095703125,-10.868489583333334 -409.29296875,-9.810546875 L-412.001953125,-16.40234375 C-409.6744791666667,-17.671875 -406.9075520833333,-18.753255208333332 -403.701171875,-19.6484375 C-400.4947916666667,-20.543619791666668 -397.158203125,-20.9921875 -393.69140625,-20.9921875 ZM-110.69140625,-20.9921875 C-104.16471354166667,-20.9921875 -99.33984375,-19.559895833333332 -96.21484375,-16.6953125 C-93.07356770833333,-13.830729166666666 -91.501953125,-9.266276041666668 -91.501953125,-3.0 L-91.501953125,33.5 L-97.8984375,33.5 L-99.607421875,25.90625 L-99.998046875,25.90625 C-101.52799479166667,27.826822916666668 -103.11393229166667,29.440104166666668 -104.7578125,30.7421875 C-106.38541666666667,32.044270833333336 -108.25,32.995442708333336 -110.349609375,33.59765625 C-112.44921875,34.199869791666664 -114.99739583333333,34.5 -117.9921875,34.5 C-121.19856770833333,34.5 -124.08658854166667,33.939453125 -126.658203125,32.81640625 C-129.21354166666666,31.677083333333332 -131.23177083333334,29.926432291666668 -132.712890625,27.56640625 C-134.177734375,25.190104166666668 -134.91015625,22.204427083333332 -134.91015625,18.607421875 C-134.91015625,13.268880208333332 -132.810546875,9.151041666666666 -128.611328125,6.25390625 C-124.39583333333333,3.3567708333333335 -117.92708333333333,1.7688802083333333 -109.203125,1.4921875 L-100.095703125,1.19921875 L-100.095703125,-1.998046875 C-100.095703125,-6.473958333333333 -101.06315104166667,-9.575520833333334 -103.0,-11.30078125 C-104.93684895833333,-13.042317708333334 -107.67122395833333,-13.912109375 -111.203125,-13.912109375 C-114.00260416666667,-13.912109375 -116.671875,-13.488932291666666 -119.2109375,-12.642578125 C-121.73372395833333,-11.8125 -124.095703125,-10.868489583333334 -126.29296875,-9.810546875 L-129.001953125,-16.40234375 C-126.67447916666667,-17.671875 -123.90755208333333,-18.753255208333332 -120.701171875,-19.6484375 C-117.49479166666667,-20.543619791666668 -114.158203125,-20.9921875 -110.69140625,-20.9921875 ZM96.30859375,-20.9921875 C102.83528645833333,-20.9921875 107.66015625,-19.559895833333332 110.78515625,-16.6953125 C113.92643229166667,-13.830729166666666 115.498046875,-9.266276041666668 115.498046875,-3.0 L115.498046875,33.5 L109.1015625,33.5 L107.392578125,25.90625 L107.001953125,25.90625 C105.47200520833333,27.826822916666668 103.88606770833333,29.440104166666668 102.2421875,30.7421875 C100.61458333333333,32.044270833333336 98.75,32.995442708333336 96.650390625,33.59765625 C94.55078125,34.199869791666664 92.00260416666667,34.5 89.0078125,34.5 C85.80143229166667,34.5 82.91341145833333,33.939453125 80.341796875,32.81640625 C77.78645833333333,31.677083333333332 75.76822916666667,29.926432291666668 74.287109375,27.56640625 C72.822265625,25.190104166666668 72.08984375,22.204427083333332 72.08984375,18.607421875 C72.08984375,13.268880208333332 74.189453125,9.151041666666666 78.388671875,6.25390625 C82.60416666666667,3.3567708333333335 89.07291666666667,1.7688802083333333 97.796875,1.4921875 L106.904296875,1.19921875 L106.904296875,-1.998046875 C106.904296875,-6.473958333333333 105.93684895833333,-9.575520833333334 104.0,-11.30078125 C102.06315104166667,-13.042317708333334 99.32877604166667,-13.912109375 95.796875,-13.912109375 C92.99739583333333,-13.912109375 90.328125,-13.488932291666666 87.7890625,-12.642578125 C85.26627604166667,-11.8125 82.904296875,-10.868489583333334 80.70703125,-9.810546875 L77.998046875,-16.40234375 C80.32552083333333,-17.671875 83.09244791666667,-18.753255208333332 86.298828125,-19.6484375 C89.50520833333333,-20.543619791666668 92.841796875,-20.9921875 96.30859375,-20.9921875 ZM-377.724609375,-20.591796875 L-377.6796875,-20.552734375 C-377.6889138788899,-20.56103036274132 -377.6997467693791,-20.565943340342784 -377.708984375,-20.57421875 C-377.71522464128475,-20.579790694581554 -377.7183584750455,-20.586228846469066 -377.724609375,-20.591796875 ZM-94.724609375,-20.591796875 L-94.6796875,-20.552734375 C-94.68891387888988,-20.56103036274132 -94.69974676937908,-20.565943340342784 -94.708984375,-20.57421875 C-94.71522464128473,-20.579790694581554 -94.71835847504546,-20.586228846469066 -94.724609375,-20.591796875 ZM112.275390625,-20.591796875 L112.3203125,-20.552734375 C112.31108612111012,-20.56103036274132 112.30025323062092,-20.565943340342784 112.291015625,-20.57421875 C112.28477535871527,-20.579790694581554 112.28164152495454,-20.586228846469066 112.275390625,-20.591796875 ZM-296.00390625,-20.08984375 L-287.19140625,-20.08984375 L-287.19140625,33.5 L-296.00390625,33.5 L-296.00390625,-20.08984375 ZM379.80078125,-18.861328125 L379.8359375,-18.822265625 C379.830518607398,-18.828281514244598 379.8237838336657,-18.831883441012916 379.818359375,-18.837890625 C379.8115570541307,-18.84539990781092 379.8075974227169,-18.85382460713512 379.80078125,-18.861328125 ZM37.1015625,-18.556640625 C39.53072285081781,-18.556640625 41.7657202167138,-18.277923759695998 43.89453125,-17.740234375 C43.89908790612832,-17.738929843821882 43.903644911780894,-17.737627948181274 43.908203125,-17.736328125 C45.19707869813701,-17.4124568271348 46.07885557616374,-17.008614382854372 47.1640625,-16.640625 L35.19921875,-16.640625 C28.325948371308264,-16.64041729585192 22.754113954148085,-11.068582878691737 22.75390625,-4.1953125 L22.75390625,1.490234375 C22.623261284589987,0.3053930731848764 22.447265625,-0.8118803491848514 22.447265625,-2.193359375 C22.447265625,-6.645327140424894 23.232486344359792,-9.766276750274685 24.349609375,-12.017578125 C25.478365597282497,-14.292323488989155 26.664432834533464,-15.529750893853143 28.681640625,-16.68359375 C28.692718594324568,-16.690087342834374 28.70378582000107,-16.6965975628583 28.71484375,-16.703125 C30.619794612025878,-17.800376696526907 33.15397512501683,-18.556640625 37.1015625,-18.556640625 ZM207.11328125,-18.453125 L207.150390625,-18.41015625 C207.1440922421572,-18.417795955114887 207.1352151878038,-18.422060353734736 207.12890625,-18.4296875 C207.122679804664,-18.437190655656583 207.1195206787952,-18.44562623695255 207.11328125,-18.453125 ZM310.708984375,-16.962890625 C311.90962401941937,-16.57508099748877 313.2144482322057,-16.227248218252793 314.24609375,-15.779296875 C317.61537248198863,-14.498630033789023 321.3743907525941,-14.741583789490527 324.55078125,-16.4453125 L324.55078125,-9.400390625 C323.4808380445751,-10.232329122495418 322.48358666425827,-11.167463140104038 321.33203125,-11.8671875 C318.14551374545306,-13.816284818893358 314.56204666711676,-15.451045467243008 310.708984375,-16.962890625 ZM505.2734375,-14.97265625 L505.294921875,-14.939453125 C505.29217464890326,-14.943716062046652 505.2879067498395,-14.946910999725956 505.28515625,-14.951171875 C505.28066136126284,-14.958111306129947 505.27793873463276,-14.965719415805665 505.2734375,-14.97265625 ZM246.6015625,-13.912109375 C242.40234375,-13.912109375 239.08203125,-12.561197916666666 236.640625,-9.859375 C234.21549479166666,-7.157552083333334 232.76692708333334,-3.406901041666667 232.294921875,1.39453125 L259.58984375,1.39453125 C259.58984375,-1.6653645833333335 259.126953125,-4.325520833333334 258.19921875,-6.587890625 C257.271484375,-8.866536458333334 255.853515625,-10.656901041666666 253.94921875,-11.958984375 C252.044921875,-13.261067708333334 249.59635416666666,-13.912109375 246.6015625,-13.912109375 ZM-337.7890625,-13.69140625 C-340.8001302083333,-13.69140625 -343.35546875,-12.895833333333334 -345.455078125,-11.30078125 C-347.5546875,-9.705729166666666 -349.1588541666667,-7.369140625 -350.265625,-4.29296875 C-351.3561197916667,-1.2330729166666665 -351.900390625,2.494140625 -351.900390625,6.888671875 C-351.900390625,13.496744791666668 -350.6868489583333,18.551432291666668 -348.26171875,22.05078125 C-345.8203125,25.550130208333332 -342.2649739583333,27.298828125 -337.59375,27.298828125 C-334.859375,27.298828125 -332.5319010416667,26.949869791666668 -330.611328125,26.25 C-328.6744791666667,25.550130208333332 -327.0703125,24.450520833333332 -325.80078125,22.953125 C-324.53125,21.455729166666668 -323.5963541666667,19.542317708333332 -322.994140625,17.21484375 C-322.3919270833333,14.87109375 -322.08984375,12.097005208333334 -322.08984375,8.890625 L-322.08984375,6.791015625 C-322.08984375,1.924479166666667 -322.6432291666667,-2.0052083333333335 -323.75,-5.0 C-324.8567708333333,-7.994791666666666 -326.5748697916667,-10.194010416666666 -328.90234375,-11.59375 C-331.2298177083333,-12.993489583333334 -334.1920572916667,-13.69140625 -337.7890625,-13.69140625 ZM420.69921875,-13.69140625 C415.23046875,-13.69140625 411.2591145833333,-11.893880208333334 408.78515625,-8.296875 C406.3274739583333,-4.699869791666666 405.099609375,0.26432291666666696 405.099609375,6.595703125 C405.099609375,10.794921875 405.6438802083333,14.449869791666666 406.734375,17.55859375 C407.8411458333333,20.651041666666668 409.5592447916667,23.034505208333332 411.88671875,24.7109375 C414.23046875,26.37109375 417.1998697916667,27.201171875 420.796875,27.201171875 C424.3938802083333,27.201171875 427.3561197916667,26.37109375 429.68359375,24.7109375 C432.02734375,23.034505208333332 433.7454427083333,20.651041666666668 434.8359375,17.55859375 C435.9427083333333,14.449869791666666 436.49609375,10.794921875 436.49609375,6.595703125 C436.49609375,2.331380208333333 435.9264322916667,-1.2981770833333335 434.787109375,-4.29296875 C433.6640625,-7.304036458333334 431.9479166666667,-9.622395833333334 429.63671875,-11.25 C427.341796875,-12.877604166666666 424.361328125,-13.69140625 420.69921875,-13.69140625 ZM483.8984375,-13.69140625 C480.3014322916667,-13.69140625 477.404296875,-13.0078125 475.20703125,-11.640625 C473.009765625,-10.2734375 471.4055989583333,-8.22265625 470.396484375,-5.48828125 C469.4036458333333,-2.7701822916666665 468.8736979166667,0.694661458333333 468.80859375,4.91015625 L468.80859375,6.595703125 C468.80859375,11.006510416666668 469.2734375,14.740885416666666 470.201171875,17.80078125 C471.12890625,20.860677083333332 472.7076822916667,23.197265625 474.9375,24.80859375 C477.18359375,26.403645833333332 480.236328125,27.201171875 484.09375,27.201171875 C487.365234375,27.201171875 490.048828125,26.305989583333332 492.1484375,24.515625 C494.248046875,22.708984375 495.810546875,20.260416666666668 496.8359375,17.16796875 C497.8776041666667,14.059244791666666 498.3984375,10.501953125 498.3984375,6.498046875 C498.3984375,0.36197916666666696 497.2122395833333,-4.537109375 494.8359375,-8.19921875 C492.4759114583333,-11.861328125 488.830078125,-13.69140625 483.8984375,-13.69140625 ZM-309.4296875,-10.935546875 L-309.986328125,-7.64453125 L-311.306640625,-7.64453125 C-310.5167057427177,-8.639322136187248 -309.8837225986114,-9.749183718881895 -309.4296875,-10.935546875 ZM456.11328125,-10.77734375 C456.5488715735389,-9.65275929112417 457.14560341498685,-8.597457150352925 457.884765625,-7.64453125 L456.626953125,-7.64453125 L456.11328125,-10.77734375 ZM128.140625,-10.6171875 C128.57344019803702,-9.551647919187744 129.1518609329364,-8.55124311974976 129.859375,-7.64453125 L128.66796875,-7.64453125 L128.140625,-10.6171875 ZM446.41796875,-8.71875 L446.447265625,-8.642578125 C446.44111319398985,-8.659073773360518 446.43196643086765,-8.674916479879624 446.42578125,-8.69140625 C446.422399025233,-8.700319206684402 446.4213588182838,-8.709838963368352 446.41796875,-8.71875 ZM314.0703125,-6.025390625 L314.158203125,-5.978515625 C314.13704839849714,-5.990441779538529 314.1110327632769,-5.999816749059859 314.08984375,-6.01171875 C314.08302301554903,-6.015497637890129 314.07713426628885,-6.021615914320162 314.0703125,-6.025390625 ZM-420.048828125,-4.11328125 C-419.8515229822803,-3.8372967200052783 -419.6430156790413,-3.569494932179633 -419.423828125,-3.310546875 C-419.6478822627676,-3.141336553435262 -419.83042804207815,-2.9195165858421617 -420.048828125,-2.7421875 L-420.048828125,-4.11328125 ZM-137.048828125,-4.11328125 C-136.85152298228033,-3.8372967200052783 -136.64301567904133,-3.569494932179633 -136.423828125,-3.310546875 C-136.6478822627676,-3.141336553435262 -136.83042804207818,-2.9195165858421617 -137.048828125,-2.7421875 L-137.048828125,-4.11328125 ZM484.41015625,-1.388671875 C485.0579279297148,-0.3765211516973854 485.95507812499994,2.0000748438390827 485.955078125,6.498046875 C485.955078125,9.422760092469089 485.567412903486,11.630266032174248 485.037109375,13.212890625 C485.03318377448045,13.225254320104495 485.02927734573774,13.237624183242485 485.025390625,13.25 C484.6493191951612,14.384183677291649 484.40863170943413,14.566620531683148 484.205078125,14.765625 C484.13184884663127,14.764990532419235 484.2079397143485,14.755859375 484.09375,14.755859375 C482.0309580384433,14.755859375 481.7957398823259,14.382247155426375 482.21484375,14.666015625 C482.31771961859306,14.788018031514422 482.3779114852321,15.077105534625046 482.109375,14.19140625 C481.66337812990207,12.720399029326135 481.25390625000006,10.134021676921025 481.25390625,6.595703125 L481.25390625,5.078125 C481.30560210039096,1.9016399730951012 481.74845225287885,-0.20332778499323034 482.05859375,-1.099609375 C481.9296047631128,-1.0228043808989407 482.1428312407483,-1.2480468750000002 483.8984375,-1.248046875 C484.4570074900786,-1.248046875 484.33462752344127,-1.3276352182214333 484.41015625,-1.388671875 ZM-337.9921875,-1.2578125 C-337.9235315636926,-1.2558078403667694 -337.9754869061555,-1.248046875 -337.7890625,-1.248046875 C-335.96597741005473,-1.248046875 -335.5308177776826,-0.9585135369463583 -335.515625,-0.953125 C-335.48746125443586,-0.8737821976072284 -335.5094376639414,-0.9191493406650126 -335.423828125,-0.6875 C-335.0768422379916,0.2514029883755854 -334.53515625,2.8678707348197334 -334.53515625,6.791015625 L-334.53515625,8.890625 C-334.53515625,11.317911380438636 -334.7850603687962,13.100186384639278 -335.046875,14.119140625 C-335.18144218069716,14.621574791007443 -335.15996607972824,14.52710465552121 -335.1953125,14.591796875 C-335.4770361060048,14.671345560144658 -336.1192268230115,14.853515625000004 -337.59375,14.853515625 C-339.1574761637689,14.853515625 -337.746284960506,15.374530619108048 -338.056640625,14.9296875 L-338.03515625,14.9609375 C-338.3713698313261,14.47579709741541 -339.45507812500006,11.974394829598161 -339.455078125,6.888671875 C-339.455078125,3.5366299937908057 -339.0031385835465,1.1948920331590653 -338.546875,-0.09375 C-338.11617227539847,-1.2776339977959448 -337.9468574961037,-1.3085093811129136 -337.9921875,-1.2578125 ZM420.69921875,-1.248046875 C422.51770669442635,-1.248046875 422.6903656417393,-0.9202720404332024 422.4375,-1.099609375 C422.4485547252311,-1.091778535497064 422.4596226927285,-1.083966419832527 422.470703125,-1.076171875 C422.6039965387128,-0.9823032737938178 422.7241341810694,-1.023381181190455 423.126953125,0.056640625 C423.1366355696929,0.08206317474104603 423.1464008997288,0.10745384883732773 423.15625,0.1328125 C423.5975925342792,1.2929128758197046 424.05078125,3.439664083582754 424.05078125,6.595703125 C424.05078125,9.70161149175284 423.62623892287667,11.942004918831614 423.11328125,13.3828125 C423.10870436697314,13.395174954097072 423.1041473613206,13.40754481723506 423.099609375,13.419921875 C422.70781619914675,14.530977149807672 422.59118984820594,14.482143034140217 422.451171875,14.580078125 C422.5880194045683,14.484217484806072 422.47152950745306,14.755859374999996 420.796875,14.755859375 C419.16416204754347,14.755859375 419.0427727862987,14.508874431996638 419.130859375,14.5625 C418.99711700864935,14.473672121424135 418.8439294925658,14.424829831757277 418.46875,13.396484375 C417.96263522713394,11.938222283985285 417.54492187499994,9.694783836453407 417.544921875,6.595703125 C417.544921875,1.904348076771881 418.5077900651378,-0.440497643613185 419.048828125,-1.244140625 C419.08272432616053,-1.31157522529429 417.9749835036067,-1.248046875 420.69921875,-1.248046875 ZM-248.10546875,-0.955078125 C-247.4240621428559,-0.955078125 -246.43437745303532,-0.8517897400776049 -245.138671875,-0.525390625 C-243.33315800944706,-0.07056652146376541 -241.86447428234976,0.3800225212796651 -240.798828125,0.771484375 C-238.31278044569476,1.4553964707890537 -235.6756871561718,1.3502952888166284 -233.251953125,0.470703125 L-233.251953125,11.8515625 C-235.48947307807242,11.457864927982984 -237.7920745988736,11.684139583067124 -239.91015625,12.505859375 C-241.07561883761758,13.042985611032455 -242.46561568395379,13.549464295118895 -244.09765625,13.990234375 C-245.0030575353021,14.234758809716624 -246.51673741164026,14.462890624999996 -248.59375,14.462890625 C-250.07484597384263,14.462890625 -250.1976531251247,14.24310954449087 -250.119140625,14.287109375 C-250.10978651277884,14.309390752509161 -250.20059716277518,14.360769197821327 -250.572265625,13.400390625 C-251.00829951772977,12.22554725025315 -251.455078125,10.061080982298423 -251.455078125,6.888671875 C-251.455078125,3.4882309499635835 -250.97913789940685,1.1965407518707722 -250.5703125,0.09765625 C-250.20328798814162,-0.863628518566285 -250.16780053164968,-0.7107553909059667 -250.189453125,-0.6875 C-250.2742876110294,-0.6339622404148186 -249.917624005312,-0.955078125 -248.10546875,-0.955078125 ZM323.712890625,2.65234375 L323.79296875,2.77734375 C323.7772132202576,2.7517733000901554 323.7580132737895,2.732485164110197 323.7421875,2.70703125 C323.7310286916281,2.689270794684859 323.7241112692891,2.6700796071021355 323.712890625,2.65234375 ZM23.529296875,5.662109375 C23.845637129313417,7.128888161666038 24.424614229871157,8.526372986042226 25.23828125,9.787109375 C24.884874050209017,9.25111751488981 24.52469963355021,8.761091108709394 24.212890625,8.0234375 C23.92699424018784,7.337034262048152 23.75440346763557,6.455013316520561 23.529296875,5.662109375 ZM281.23828125,6.05078125 C282.0549196475783,6.59599449980408 282.83505038937795,7.19185870939884 283.69140625,7.677734375 C283.70246417999897,7.6842618121417 283.71353140567544,7.690772032165627 283.724609375,7.697265625 C286.7489877251558,9.401140751848336 290.032674204512,10.863970186762367 293.6015625,12.173828125 C293.64055288698216,12.188347016544768 293.6796160616779,12.20267009405411 293.71875,12.216796875 C295.9932714281346,13.026083525459883 296.97217730504826,13.567912777510463 298.45703125,14.228515625 C295.6669843606996,14.217699318003671 293.0225653505914,13.914545137161 290.462890625,13.298828125 C287.42873706920386,12.564414213904042 285.1203357882648,11.774771297792393 283.69921875,11.13671875 C282.56459716282063,10.870849744823543 281.39825751122964,10.765656577062266 280.234375,10.82421875 C280.6533426169408,10.054522381083926 280.98984443626324,9.242728136209934 281.23828125,8.40234375 L281.23828125,6.05078125 ZM-383.193359375,7.3046875 L-391.103515625,7.59765625 C-397.7604166666667,7.874348958333333 -402.3736979166667,8.948567708333334 -404.9453125,10.8203125 C-407.5169270833333,12.67578125 -408.8046875,15.303385416666666 -408.8046875,18.705078125 C-408.8046875,21.699869791666668 -407.8932291666667,23.897135416666668 -406.0703125,25.296875 C-404.2311197916667,26.696614583333332 -401.869140625,27.396484375 -398.98828125,27.396484375 C-394.4635416666667,27.396484375 -390.7057291666667,26.150390625 -387.7109375,23.66015625 C-384.6998697916667,21.153645833333332 -383.193359375,17.298177083333332 -383.193359375,12.08984375 L-383.193359375,7.3046875 ZM-100.193359375,7.3046875 L-108.103515625,7.59765625 C-114.76041666666667,7.874348958333333 -119.37369791666667,8.948567708333334 -121.9453125,10.8203125 C-124.51692708333333,12.67578125 -125.8046875,15.303385416666666 -125.8046875,18.705078125 C-125.8046875,21.699869791666668 -124.89322916666667,23.897135416666668 -123.0703125,25.296875 C-121.23111979166667,26.696614583333332 -118.869140625,27.396484375 -115.98828125,27.396484375 C-111.46354166666667,27.396484375 -107.70572916666667,26.150390625 -104.7109375,23.66015625 C-101.69986979166667,21.153645833333332 -100.193359375,17.298177083333332 -100.193359375,12.08984375 L-100.193359375,7.3046875 ZM106.806640625,7.3046875 L98.896484375,7.59765625 C92.23958333333333,7.874348958333333 87.62630208333333,8.948567708333334 85.0546875,10.8203125 C82.48307291666667,12.67578125 81.1953125,15.303385416666666 81.1953125,18.705078125 C81.1953125,21.699869791666668 82.10677083333333,23.897135416666668 83.9296875,25.296875 C85.76888020833333,26.696614583333332 88.130859375,27.396484375 91.01171875,27.396484375 C95.53645833333333,27.396484375 99.29427083333333,26.150390625 102.2890625,23.66015625 C105.30013020833333,21.153645833333332 106.806640625,17.298177083333332 106.806640625,12.08984375 L106.806640625,7.3046875 ZM-371.791015625,21.0546875 L-371.658203125,21.0546875 C-371.6307745998039,21.15758780949554 -371.6218787972302,21.268515750405673 -371.59375,21.37109375 C-371.65792149238996,21.264646179754287 -371.7236839132105,21.15916518549241 -371.791015625,21.0546875 ZM-88.791015625,21.0546875 L-87.943359375,21.0546875 L-87.466796875,23.173828125 C-87.83599155388981,22.424811365061657 -88.27963382077786,21.714853919387153 -88.791015625,21.0546875 ZM118.208984375,21.0546875 L119.056640625,21.0546875 L119.533203125,23.173828125 C119.16400844611019,22.424811365061657 118.72036617922214,21.714853919387153 118.208984375,21.0546875 ZM508.6484375,21.083984375 L508.63671875,21.12109375 C508.6394751936304,21.1128674885406 508.639827342553,21.10393108710024 508.642578125,21.095703125 C508.64394019212773,21.09160081239138 508.6470771603149,21.088086986748717 508.6484375,21.083984375 ZM455.6328125,22.447265625 L455.623046875,22.48046875 C455.62584220426476,22.472276882293535 455.62611621913413,22.463271743412047 455.62890625,22.455078125 C455.62984208642825,22.452312098440476 455.6318772489559,22.45003186048255 455.6328125,22.447265625 ZM-379.984375,40.458984375 L-380.03125,40.49609375 C-380.0218384090633,40.48863902450559 -380.01331015277356,40.48011997041568 -380.00390625,40.47265625 C-379.99768829360164,40.467690992314715 -379.99058849359324,40.46395516987457 -379.984375,40.458984375 ZM-96.984375,40.458984375 L-97.03125,40.49609375 C-97.0218384090633,40.48863902450559 -97.01331015277358,40.48011997041568 -97.00390625,40.47265625 C-96.99768829360164,40.467690992314715 -96.99058849359321,40.46395516987457 -96.984375,40.458984375 ZM110.015625,40.458984375 L109.96875,40.49609375 C109.9781615909367,40.48863902450559 109.98668984722642,40.48011997041568 109.99609375,40.47265625 C110.00231170639836,40.467690992314715 110.00941150640679,40.46395516987457 110.015625,40.458984375 Z" fill="#FFFFFF" fill-rule="evenodd" />
	</g>
</svg>